/* XPM */
static char * 8_xpm[] = {
"64 64 3 1",
" 	c #000000",
".	c #222222",
"+	c #EEEEEE",
"                                                                ",
"                                                                ",
"                                                                ",
"                                                                ",
"                                                                ",
"                                                                ",
"                                                                ",
"                                                                ",
"                                                                ",
"                                                                ",
"                  ........................                      ",
"                  ........................                      ",
"                  ........................                      ",
"                  ........................                      ",
"              ........++++++++++++++++........                  ",
"              ........++++++++++++++++........                  ",
"              ........++++++++++++++++........                  ",
"              ........++++++++++++++++........                  ",
"              ....++++++++++++++++++++++++........              ",
"              ....++++++++++++++++++++++++........              ",
"              ....++++++++++++++++++++++++........              ",
"              ....++++++++++++++++++++++++........              ",
"              ....++++++++........++++++++........              ",
"              ....++++++++........++++++++........              ",
"              ....++++++++........++++++++........              ",
"              ....++++++++........++++++++........              ",
"              ........++++++++++++++++............              ",
"              ........++++++++++++++++............              ",
"              ........++++++++++++++++............              ",
"              ........++++++++++++++++............              ",
"              ....++++++++++++++++++++++++........              ",
"              ....++++++++++++++++++++++++........              ",
"              ....++++++++++++++++++++++++........              ",
"              ....++++++++++++++++++++++++........              ",
"              ....++++++++........++++++++........              ",
"              ....++++++++........++++++++........              ",
"              ....++++++++........++++++++........              ",
"              ....++++++++........++++++++........              ",
"              ....++++++++++++++++++++++++........              ",
"              ....++++++++++++++++++++++++........              ",
"              ....++++++++++++++++++++++++........              ",
"              ....++++++++++++++++++++++++........              ",
"              ........++++++++++++++++............              ",
"              ........++++++++++++++++............              ",
"              ........++++++++++++++++............              ",
"              ........++++++++++++++++............              ",
"                  ................................              ",
"                  ................................              ",
"                  ................................              ",
"                  ................................              ",
"                      ........................                  ",
"                      ........................                  ",
"                      ........................                  ",
"                      ........................                  ",
"                                                                ",
"                                                                ",
"                                                                ",
"                                                                ",
"                                                                ",
"                                                                ",
"                                                                ",
"                                                                ",
"                                                                ",
"                                                                "};
