/* XPM */
static char * cat5_xpm[] = {
"64 64 9 1",
" 	c #000000",
".	c #BFBFBF",
"+	c #A1A1A1",
"@	c #D8D8D8",
"#	c #959595",
"$	c #F6B5F9",
"%	c #222222",
"&	c #FF7171",
"*	c #FBF236",
"                                                                ",
"                                                                ",
"                                                                ",
"                                                                ",
"                                                                ",
"                                                                ",
"                                                                ",
"                                                                ",
"                                                                ",
"                                                                ",
"                                                                ",
"                                                                ",
"                                                                ",
"                                                                ",
"                                   ..         ..                ",
"                                   ..         ..                ",
"          +@@                     #...       #....              ",
"          +@@                     #...       #....              ",
"        ++@@@                   ##.$$.@@@@@@@@..$$.             ",
"        ++@@@                   ##...@@@@@@@@@@@...             ",
"        ++@@@                   ##...@@@@@@@@@@@...             ",
"        ++@@@@@@@@            ####.@@@@@@@@@@@@@@@@@@           ",
"          +@@@@@@@@           ++++@@@@@@@@@@@@@@@@@@@           ",
"          +@@@@@@@@           ++++@@@@@@@@@@@@@@@@@@@           ",
"              ++@@@           ++@@@@@@@@@@@@@@@@@@@@@           ",
"              ++@@@           ++@@@@@@@@@@@@@@@@@@@@@           ",
"                ++@@@         ++@@@##%%%@@@@@@##%%%@@           ",
"                ++@@@         ++@@@@@@@@@@@%%@@@@@@@@           ",
"                ++@@@         ++@@@@@@@@@@@%%@@@@@@@@           ",
"                  +@@ @@@@@@@@&&@@@@@@@@@@%@@%@@@@@@@           ",
"                  +@@@@@@@@@@@@@&&@@@@@@@@@@@@@@@@@             ",
"                  +@@@@@@@@@@@@@&&@@@@@@@@@@@@@@@@@             ",
"                   ++@@@@@@@@@@@@@&&&@@@@@@@@@@@@@              ",
"                   ++@@@@@@@@@@@@@&&&@@@@@@@@@@@@@              ",
"                     @@@@@@@@@@@@@@@@&&&&&&&&&                  ",
"                     +@@@@@@@@@@@@@@@@@@***@@                   ",
"                     +@@@@@@@@@@@@@@@@@@***@@                   ",
"                     +@@@@@@@@@@@@@+++@@***@@                   ",
"                     +@@@@@@@@@@@@@@@@++@@@@@                   ",
"                     +@@@@@@@@@@@@@@@@++@@@@@                   ",
"                   +++@@@@@@@+@@@@+@@@@@++@                     ",
"                   +++@@@@@@@+@@@@+@@@@@++@                     ",
"                   +++++@@@@@+@@@@+++@@@+++                     ",
"                        @@@+++     ++@+++++                     ",
"                        @@@+++     ++@+++++                     ",
"                        @@@@@         +++++                     ",
"                                                                ",
"                                                                ",
"                                                                ",
"                                                                ",
"                                                                ",
"                                                                ",
"                                                                ",
"                                                                ",
"                                                                ",
"                                                                ",
"                                                                ",
"                                                                ",
"                                                                ",
"                                                                ",
"                                                                ",
"                                                                ",
"                                                                ",
"                                                                "};
