/* XPM */
static char * cat7_xpm[] = {
"64 64 10 1",
" 	c #000000",
".	c #BFBFBF",
"+	c #D8D8D8",
"@	c #959595",
"#	c #F6B5F9",
"$	c #A1A1A1",
"%	c #F0F0F0",
"&	c #222222",
"*	c #FF7171",
"=	c #FBF236",
"                                                                ",
"                                                                ",
"                                                                ",
"                                                                ",
"                                                                ",
"                                                                ",
"                                                                ",
"                                                                ",
"                                                                ",
"                                                                ",
"                                                                ",
"                                                                ",
"                                                                ",
"                                                                ",
"                                   ..         ..                ",
"                                   ..         ..                ",
"              +++++               @...       @....              ",
"              +++++               @...       @....              ",
"             ++++++++           @@.##.++++++++..##.             ",
"             $$$$$++++          @@...+++++++++++...             ",
"             $$$$$++++          @@...+++++++++++...             ",
"                  $+++        @@@@.++++++++++++++++++           ",
"                  $+++        $$$$+%%%%%++++++%%%%%++           ",
"                  $+++        $$$$+%%%%%++++++%%%%%++           ",
"                $$+++         $$++%%%%&&%%+++%%%%&&%%           ",
"                $$+++         $$++%%%%&&%%+++%%%%&&%%           ",
"              $$+++           $$++%%%%&&%%+++%%%%&&%%           ",
"              $$+++           $$+++%%%%%+++&&+%%%%%++           ",
"              $$+++           $$+++%%%%%+++&&+%%%%%++           ",
"              $$+++++   ++++++**++++++++++&++&+++++++           ",
"                $$++++++++++++++**+++++++++++++++++             ",
"                $$++++++++++++++**+++++++++++++++++             ",
"                  $+++++++++++++++***+++++++++++++              ",
"                  $+++++++++++++++***+++++++++++++              ",
"                     ++++++++++++++++*********                  ",
"                      ++++++++++++++++++===++                   ",
"                      ++++++++++++++++++===++                   ",
"                      ++++++++++++++++++===++                   ",
"                      +++++++++++++++++++++++                   ",
"                      +++++++++++++++++++++++                   ",
"                     ++++++$$++++++$$++++++$$                   ",
"                     ++++++$$++++++$$++++++$$                   ",
"                     +++++$$$$+++++$$+++++$                     ",
"                     +++++$$$$     $$+++                        ",
"                     +++++$$$$     $$+++                        ",
"                     +++   $$$     $$+++                        ",
"                                                                ",
"                                                                ",
"                                                                ",
"                                                                ",
"                                                                ",
"                                                                ",
"                                                                ",
"                                                                ",
"                                                                ",
"                                                                ",
"                                                                ",
"                                                                ",
"                                                                ",
"                                                                ",
"                                                                ",
"                                                                ",
"                                                                ",
"                                                                "};
