/* XPM */
static char * cat9_xpm[] = {
"64 64 10 1",
" 	c #000000",
".	c #D8D8D8",
"+	c #BFBFBF",
"@	c #A1A1A1",
"#	c #959595",
"$	c #F6B5F9",
"%	c #222222",
"&	c #E0E0E0",
"*	c #FF7171",
"=	c #FBF236",
"                                                                ",
"                                                                ",
"                                                                ",
"                                                                ",
"                                                                ",
"                                                                ",
"                                                                ",
"                                                                ",
"                                                                ",
"                                                                ",
"                                                                ",
"                                                                ",
"                                                                ",
"                                                                ",
"                ...                ++         ++                ",
"                ...                ++         ++                ",
"              @@...               #+++       #++++              ",
"              @@...               #+++       #++++              ",
"             @....              ##+$$+........++$$+             ",
"             @....              ##+++...........+++             ",
"             @....              ##+++...........+++             ",
"           @@...              ####+..................           ",
"           @@...              @@@@...................           ",
"           @@...              @@@@...................           ",
"           @@.....            @@.....................           ",
"           @@.....            @@.....................           ",
"             ........         @@...##%%%......##%%%..           ",
"              @@@@....        @@...........%%........           ",
"              @@@@....        @@...........%%........           ",
"                  @&&.........**..........%..%.......           ",
"                   @@...........**.................             ",
"                   @@...........**.................             ",
"                     .............***.............              ",
"                     .............***.............              ",
"                     ................*********                  ",
"                      ..................===..                   ",
"                      ..................===..                   ",
"                      ..................===..                   ",
"                      .......................                   ",
"                      .......................                   ",
"                     ......@@......@@......@@                   ",
"                     ......@@......@@......@@                   ",
"                     .....@@@@.....@@.....@                     ",
"                     .....@@@@     @@...                        ",
"                     .....@@@@     @@...                        ",
"                     ...   @@@     @@...                        ",
"                                                                ",
"                                                                ",
"                                                                ",
"                                                                ",
"                                                                ",
"                                                                ",
"                                                                ",
"                                                                ",
"                                                                ",
"                                                                ",
"                                                                ",
"                                                                ",
"                                                                ",
"                                                                ",
"                                                                ",
"                                                                ",
"                                                                ",
"                                                                "};
