/* XPM */
static char * cat_w_left1_xpm[] = {
"64 64 8 1",
" 	c #000000",
".	c #D87008",
"+	c #CC580E",
"@	c #BC4218",
"#	c #431A1C",
"$	c #250F07",
"%	c #FF6D4C",
"&	c #D88800",
"                                                                ",
"                                                                ",
"                                                                ",
"                                                                ",
"                                                                ",
"                                                                ",
"                                                                ",
"                                                                ",
"                                                    ..++        ",
"                                                    ..++        ",
"                                                    ....+++     ",
"                                                    ....+++     ",
"                                                      .....++   ",
"                                                      .....++   ",
"                                                      .....++   ",
"             ++           ++                            ...++   ",
"             ++           ++                            ...++   ",
"             ++           ++                            ...++   ",
"         ++++@@+++    ++++@@++                          ...++   ",
"         ++++@@+++    ++++@@++                          ...++   ",
"         ++++.............@@++                          ...++   ",
"         ++++.............@@++                          ...++   ",
"         ++++.............@@++                          ...++   ",
"         .....................+++                     .....++   ",
"         .....................+++                     .....++   ",
"     ##..$$$$.........$$$$....#########               ..+++     ",
"     ##..$$$$.........$$$$....#########               ..+++     ",
"     ##..$$$$.........$$$$....#########               ..+++     ",
"       ........###...............++                 ....+++     ",
"       ........###...............++                 ....+++     ",
"       ........###...............++                 ....+++     ",
"     ##......##%%%##..........#########...............@@        ",
"     ##......##%%%##..........#########...............@@        ",
"       ..........................@@.................@@          ",
"       ..........................@@.................@@          ",
"       ..........................@@.................@@          ",
"         .....................@@@...............++++            ",
"         .....................@@@...............++++            ",
"             .....&&............................++++            ",
"             .....&&............................++++            ",
"             .....&&............................++++            ",
"             ..&&&&&&&..........................++++            ",
"             ..&&&&&&&..........................++++            ",
"             ..&&&&&&&..........................++++            ",
"             ++&&&&&&&&&&&..........................++          ",
"             ++&&&&&&&&&&&..........................++          ",
"               +++&&&&&&&&..........................++          ",
"               +++&&&&&&&&..........................++          ",
"               +++&&&&&&&&..........................++          ",
"               ...@@@@@@@@....++++++++++++++++......++          ",
"               ...@@@@@@@@....++++++++++++++++......++          ",
"               ...++      ..++           @@@@@  ....++          ",
"               ...++      ..++           @@@@@  ....++          ",
"                  ++++  ....             @@@        ++++        ",
"                  ++++  ....             @@@        ++++        ",
"                    ++  ..               @@@          ++        ",
"                    ++  ..               @@@          ++        ",
"                                                                ",
"                                                                ",
"                                                                ",
"                                                                ",
"                                                                ",
"                                                                ",
"                                                                "};
