/* XPM */
static char * cat_s_right2_xpm[] = {
"64 64 8 1",
" 	c #000000",
".	c #CC580E",
"+	c #D87008",
"@	c #BC4218",
"#	c #431A1C",
"$	c #250F07",
"%	c #FF6D4C",
"&	c #D88800",
"                                                                ",
"                                                                ",
"                                                                ",
"                                                                ",
"                                                                ",
"                                                                ",
"                                                                ",
"                                                                ",
"                                                                ",
"                                                                ",
"                                                                ",
"            ..+++                                               ",
"            ..+++                                               ",
"          ..+++                                                 ",
"          ..+++                                                 ",
"        ..+++++                                                 ",
"        ..+++                                                   ",
"      ..+++++                       ..           ..             ",
"      ..+++++                       ..           ..             ",
"     ..++++                         ..           ..             ",
"     ..++++                       ..@@....    ...@@....         ",
"    ..++++                        ..@@....    ...@@....         ",
"    ..++++                        ..@@+++++++++++++....         ",
"    ..++++                        ..@@+++++++++++++....         ",
"    ..++++                        ..@@+++++++++++++....         ",
"    ..++++                     ...+++++++++++++++++++++         ",
"    ..++++                     ...+++++++++++++++++++++         ",
"     ...++               #########++++$$$$+++++++++$$$$++##     ",
"     ...++               #########++++$$$$+++++++++$$$$++##     ",
"     ...++               #########++++$$$$+++++++++$$$$++##     ",
"     ...++++                 ..+++++++++++++++###++++++++       ",
"     ...++++                 ..+++++++++++++++###++++++++       ",
"     ...++++                 ..+++++++++++++++###++++++++       ",
"        @@+++++++++++++++#########++++++++++##%%%##++++++##     ",
"        @@+++++++++++++++#########++++++++++##%%%##++++++##     ",
"          @@+++++++++++++++++@@++++++++++++++++++++++++++       ",
"          @@+++++++++++++++++@@++++++++++++++++++++++++++       ",
"          @@+++++++++++++++++@@++++++++++++++++++++++++++       ",
"            ....+++++++++++++++@@@+++++++++++++++++++++         ",
"            ....+++++++++++++++@@@+++++++++++++++++++++         ",
"            ....++++++++++++++++++++++++++++&&+++++             ",
"            ....++++++++++++++++++++++++++++&&+++++             ",
"            ....++++++++++++++++++++++++++++&&+++++             ",
"            ....++++++++++++++++++++++++++&&&&&&&++             ",
"            ....++++++++++++++++++++++++++&&&&&&&++             ",
"            ....++++++++++++++++++++++++++&&&&&&&++             ",
"          ..++++++++++++++++++++++++++&&&&&&&&&&&..             ",
"          ..++++++++++++++++++++++++++&&&&&&&&&&&..             ",
"          ..++++++++++++++++++++++++++&&&&&&&&...               ",
"          ..++++++++++++++++++++++++++&&&&&&&&...               ",
"          ..++++++++++++++++++++++++++&&&&&&&&...               ",
"          ..++++++................++++@@@@@@@@+++               ",
"          ..++++++................++++@@@@@@@@+++               ",
"          ..++++  @@@@@           ..++      ..+++               ",
"          ..++++  @@@@@           ..++      ..+++               ",
"          ..      @@@               ++      ..                  ",
"          ..      @@@               ++      ..                  ",
"          ..      @@@               ++      ..                  ",
"          ..      @@@               ++      ..                  ",
"                                                                ",
"                                                                ",
"                                                                ",
"                                                                ",
"                                                                "};
