/* XPM */
static char * catK_xpm[] = {
"64 64 11 1",
" 	c #000000",
".	c #D8D8D8",
"+	c #BFBFBF",
"@	c #959595",
"#	c #A1A1A1",
"$	c #F6B5F9",
"%	c #F0F0F0",
"&	c #222222",
"*	c #FF7171",
"=	c #E0E0E0",
"-	c #FBF236",
"                                                                ",
"                                                                ",
"                                                                ",
"                                                                ",
"                                                                ",
"                                                                ",
"                                                                ",
"                                                                ",
"                                                                ",
"                                                                ",
"                                                                ",
"                                                                ",
"                                                                ",
"                                              ....              ",
"                ++         ++                .....              ",
"                ++         ++                .....              ",
"              ++++@       +++@               ...##              ",
"              ++++@       +++@               ...##              ",
"             +$$++........+$$+@@             ...                ",
"             +++...........+++@@             ...                ",
"             +++...........+++@@             ...                ",
"           ..................+@@@@           ...##              ",
"           ..%%%%%......%%%%%.####            ....#             ",
"           ..%%%%%......%%%%%.####            ....#             ",
"           %%&&%%%%...%%&&%%%%..##            ....#             ",
"           %%&&%%%%...%%&&%%%%..##            ....#             ",
"           %%&&%%%%...%%&&%%%%..##           .....#             ",
"           ..%%%%%.&&...%%%%%...##         ##...##              ",
"           ..%%%%%.&&...%%%%%...##         ##...##              ",
"           .......&..&..........**........===...                ",
"             .................**..............                  ",
"             .................**..............                  ",
"              .............***.............##                   ",
"              .............***.............##                   ",
"                  *********................                     ",
"                   ..---..................                      ",
"                   ..---..................                      ",
"                   ..---..................                      ",
"                   .......................                      ",
"                   .......................                      ",
"                   ##......##......##......                     ",
"                   ##......##......##......                     ",
"                     #.....##.....####.....                     ",
"                        ...##     ####.....                     ",
"                        ...##     ####.....                     ",
"                        ...##     ###   ...                     ",
"                                                                ",
"                                                                ",
"                                                                ",
"                                                                ",
"                                                                ",
"                                                                ",
"                                                                ",
"                                                                ",
"                                                                ",
"                                                                ",
"                                                                ",
"                                                                ",
"                                                                ",
"                                                                ",
"                                                                ",
"                                                                ",
"                                                                ",
"                                                                "};
