/* XPM */
static char *result[] = {
/* columns rows colors chars-per-pixel */
"64 64 12 1 ",
"  c black",
". c #060606",
"X c #093A07",
"o c #272727",
"O c gray18",
"+ c #094A06",
"@ c #165C13",
"# c gray25",
"$ c gray31",
"% c gray37",
"& c #888888",
"* c #D5D5D5",
/* pixels */
"                                                                ",
"                                                                ",
"                                                                ",
"                                                                ",
"                                                                ",
"                                                                ",
"                                                                ",
"                                                                ",
"                                                                ",
"                                                                ",
"                                                                ",
"                                                                ",
"                                                                ",
"                                                                ",
"                                                   ooooooo      ",
"                                                 ooooooooo      ",
"                                                oooooo####      ",
"           O                                   ooooo##          ",
"          OOO                                  ooooo            ",
"          OOOO           OO                    oooo             ",
"          OOOOO         OOOO                   oooo             ",
"          OOOOO        OOOOO                   oooo             ",
"          OOOOooooooooOOO+OO                   ooooo            ",
"         OOOoooooooooooO++OO                    oooo#           ",
"         OOoooooooooooo+@@OO                    oooo#           ",
"         oooooooooooooooo@OO                     oooo#          ",
"         oo***ooooooooooooOO                      ooo#          ",
"         o*.***ooo***oooooo#                      ooo#          ",
"         o*****oo*.***ooooo#                       oo#          ",
"     %%  o*****oo*****ooooo##                      oo#          ",
"      %%%oo***ooo*****ooooo##                      oo#          ",
"        %%oooooooo***oooooo##                      oo#          ",
"        o%%ooooooooooooooo###                     ooo#          ",
"        ooooooXooooooooooo###ooooooooooooooo     oooo#          ",
"      %%%%oooo&oooo%%%%%%%###oooooooooooooooooo ooooo#          ",
"    %%  ooooo&o&ooooooooo%%%#ooooooooooooooooooooooo#           ",
"        ooooooooooo%%%oo####oooooooooooooooooooooooo            ",
"         oooooooooooo%%o###oooooooooooooooooooooooo             ",
"          oooooooooooo%%%##ooooooooooooooooooooooo##            ",
"           ooooooooooo##%%oooooooooooooooooooooooo##            ",
"             ooo########oooooooooooooooooooooooooo##            ",
"               oo##ooooooooooooooooooooooooooooooo##            ",
"               ooooooooooooooooooooooooooooooooooo##            ",
"               ooooooooooooooooooooooooooooooooooo##            ",
"                oooooooooooooooooooooooooooooooooo##            ",
"                oooooooooooooooooooooooooooooooooo##            ",
"                 oooooooooooooooooooooooooooooooo###            ",
"                 oooooooooooooooooooooooooooooooo##             ",
"                  oooooooooooooooooooooooooooooo###             ",
"                  OOoooooooooooooooooooooooooooo###             ",
"                 OOOO#    ooooooooooooooooooooo####$            ",
"                 OOOO#     ooooo#       ooooo#######$           ",
"                 OOO#      ooooo#       ooooo#  ####$           ",
"                OOO#        oooo#        oooo#   ###$           ",
"                OOO#         oooo#       oooo#   ###$           ",
"               OOO#           ooo#        ooo#   ###$           ",
"               OO#            oooo#       ooo#   ###$           ",
"              OO##             ooo#       oo#    ##$            ",
"             OO#               oo#       oo#    ###$            ",
"                              ooo#      oo#     ##$             ",
"                             ooo#      oo#     ###$             ",
"                                                                ",
"                                                                ",
"                                                                "
};
