/* XPM */
static char *result[] = {
/* columns rows colors chars-per-pixel */
"64 64 13 1 ",
"  c black",
". c #D8D8D8",
"X c gray75",
"o c gray82",
"O c #F6B5F9",
"+ c #E9A3EC",
"@ c #2A2A2A",
"# c #F9F9F9",
"$ c gray63",
"% c #F6C5F8",
"& c #777777",
"* c gray69",
"= c white",
/* pixels */
"                                                                ",
"                                                                ",
"                                                                ",
"                                                                ",
"                                                                ",
"                                                                ",
"                                                                ",
"                                                                ",
"                                                                ",
"                                                                ",
"                                                                ",
"                                                                ",
"                                                                ",
"                                                                ",
"                                                   @@@@@@@      ",
"                                                 @@@@@@@@@      ",
"                                                @@@@@@@@@@      ",
"           @                                   @@@@@@@          ",
"          @@@                                  @@@@@            ",
"          @@@@           @@                    @@@@             ",
"          @@@@@         @@@@                   @@@@             ",
"          @@@@@        @@@@@                   @@@@             ",
"          @@@@@@@@@@@@@@@@@@                   @@@@@            ",
"         @@@@@@@@@@@@@@@@@@@                    @@@@@           ",
"         @@@@@@@@@@@@@@@@@@@                    @@@@@           ",
"         @@@@@@@@@@@@@@@@@@@                     @@@@@          ",
"         @@...@@@@@@@@@@@@@@                      @@@@          ",
"         @. ...@@@...@@@@@@@                      @@@@          ",
"         @.....@@. ...@@@@@@                       @@@          ",
"     &&  @.....@@.....@@@@@@@                      @@@          ",
"      &&&@@...@@@.....@@@@@@@                      @@@          ",
"        &&@@@@@@@@...@@@@@@@@                      @@@          ",
"        @&&@@@@@@@@@@@@@@@@@@                     @@@@          ",
"        @@@@@@@@@@@@@@@@@@@@@@@@@@@@@@@@@@@@     @@@@@          ",
"      &&&&@@@@&@@@@&&&&&&&@@@@@@@@@@@@@@@@@@@@@ @@@@@@          ",
"    &&  @@@@@&@&@@@@@@@@@&&&@@@@@@@@@@@@@@@@@@@@@@@@@           ",
"        @@@@@@@@@@@&&&@@@@@@@@@@@@@@@@@@@@@@@@@@@@@@            ",
"         @@@@@@@@@@@@&&@@@@@@@@@@@@@@@@@@@@@@@@@@@@             ",
"          @@@@@@@@@@@@&&&@@@@@@@@@@@@@@@@@@@@@@@@@@@            ",
"           @@@@@@@@@@@@@&&@@@@@@@@@@@@@@@@@@@@@@@@@@            ",
"             @@@@@@@@@@@@@@@@@@@@@@@@@@@@@@@@@@@@@@@            ",
"               @@@@@@@@@@@@@@@@@@@@@@@@@@@@@@@@@@@@@            ",
"               @@@@@@@@@@@@@@@@@@@@@@@@@@@@@@@@@@@@@            ",
"               @@@@@@@@@@@@@@@@@@@@@@@@@@@@@@@@@@@@@            ",
"                @@@@@@@@@@@@@@@@@@@@@@@@@@@@@@@@@@@@            ",
"                @@@@@@@@@@@@@@@@@@@@@@@@@@@@@@@@@@@@            ",
"                 @@@@@@@@@@@@@@@@@@@@@@@@@@@@@@@@@@@            ",
"                 @@@@@@@@@@@@@@@@@@@@@@@@@@@@@@@@@@             ",
"                  @@@@@@@@@@@@@@@@@@@@@@@@@@@@@@@@@             ",
"                  @@@@@@@@@@@@@@@@@@@@@@@@@@@@@@@@              ",
"                  @@@@    @@@@@@@@@@@@@@@@@@@@@@@@              ",
"                  @@@@    @@@@@@        @@@@@@@@@@@             ",
"                  @@@@    @@@@@          @@@@ @@@@@             ",
"                  @@@@    @@@@@           @@@ @@@@@             ",
"                  @@@@    @@@@@           @@@  @@@@             ",
"                  @@@@    @@@@            @@@  @@@              ",
"                  @@@    @@@@@            @@@  @@@              ",
"                 @@@@    @@@@            @@@   @@@              ",
"                 @@@     @@@                  @@@               ",
"                @@@     @@@                                     ",
"                                                                ",
"                                                                ",
"                                                                ",
"                                                                "
};
