/* XPM */
static char *result[] = {
/* columns rows colors chars-per-pixel */
"64 64 12 1 ",
"  c black",
". c #060606",
"X c #093A07",
"o c #272727",
"O c gray18",
"+ c #094A06",
"@ c #165C13",
"# c gray25",
"$ c gray31",
"% c gray37",
"& c #888888",
"* c #D5D5D5",
/* pixels */
"                                                                ",
"                                                                ",
"                                                                ",
"                                                                ",
"                                                                ",
"                                                                ",
"                                                                ",
"                                                                ",
"                                                                ",
"                                                                ",
"                                                                ",
"                                                                ",
"                                                                ",
"                                                                ",
"      ooooooo                                                   ",
"      ooooooooo                                                 ",
"      ####oooooo                                                ",
"          ##ooooo                                   O           ",
"            ooooo                                  OOO          ",
"             oooo                    OO           OOOO          ",
"             oooo                   OOOO         OOOOO          ",
"             oooo                   OOOOO        OOOOO          ",
"            ooooo                   OO+OOOooooooooOOOO          ",
"           #oooo                    OO++OoooooooooooOOO         ",
"           #oooo                    OO@@+ooooooooooooOO         ",
"          #oooo                     OO@oooooooooooooooo         ",
"          #ooo                      OOoooooooooooo***oo         ",
"          #ooo                      #oooooo***ooo***.*o         ",
"          #oo                       #ooooo***.*oo*****o         ",
"          #oo                      ##ooooo*****oo*****o  %%     ",
"          #oo                      ##ooooo*****ooo***oo%%%      ",
"          #oo                      ##oooooo***oooooooo%%        ",
"          #ooo                     ###ooooooooooooooo%%o        ",
"          #oooo     ooooooooooooooo###oooooooooooXoooooo        ",
"          #ooooo oooooooooooooooooo###%%%%%%%oooo&oooo%%%%      ",
"           #ooooooooooooooooooooooo#%%%ooooooooo&o&ooooo  %%    ",
"            oooooooooooooooooooooooo####oo%%%ooooooooooo        ",
"             oooooooooooooooooooooooo###o%%oooooooooooo         ",
"            ##ooooooooooooooooooooooo##%%%oooooooooooo          ",
"            ##oooooooooooooooooooooooo%%##ooooooooooo           ",
"            ##oooooooooooooooooooooooooo########ooo             ",
"            ##ooooooooooooooooooooooooooooooo##oo               ",
"            ##ooooooooooooooooooooooooooooooooooo               ",
"            ##ooooooooooooooooooooooooooooooooooo               ",
"            ##oooooooooooooooooooooooooooooooooo                ",
"            ##oooooooooooooooooooooooooooooooooo                ",
"            ###oooooooooooooooooooooooooooooooo                 ",
"             ##oooooooooooooooooooooooooooooooo                 ",
"             ###oooooooooooooooooooooooooooooo                  ",
"             ###ooooooooooooooooooooooooooooOO                  ",
"            $####ooooooooooooooooooooo    #OOOO                 ",
"           $#######ooooo       #ooooo     #OOOO                 ",
"           $####  #ooooo       #ooooo      #OOO                 ",
"           $###   #oooo        #oooo        #OOO                ",
"           $###   #oooo       #oooo         #OOO                ",
"           $###   #ooo        #ooo           #OOO               ",
"           $###   #ooo       #oooo            #OO               ",
"            $##    #oo       #ooo             ##OO              ",
"            $###    #oo       #oo               #OO             ",
"             $##     #oo      #ooo                              ",
"             $###     #oo      #ooo                             ",
"                                                                ",
"                                                                ",
"                                                                "
};
