/* XPM */
static char * enemyL_xpm[] = {
"64 64 10 1",
" 	c #000000",
".	c #404040",
"+	c #272727",
"@	c #6A6A6A",
"#	c #5E5E5E",
"$	c #094A06",
"%	c #DDDDDD",
"&	c #008E8E",
"*	c #1F1F1F",
"=	c #040DC9",
"                                                                ",
"                                                                ",
"                                                                ",
"                                                                ",
"                                                                ",
"                                                                ",
"                                                                ",
"                                                                ",
"                                                                ",
"                                                                ",
"                                                                ",
"                                                                ",
"                                                                ",
"                                                                ",
"                ..         ..                +++                ",
"                ..         ..                +++                ",
"              ....@       ...@               +++##              ",
"              ....@       ...@               +++##              ",
"             .$$..++++++++.$$.@@              ++++#             ",
"             ...+++++++++++...@@              ++++#             ",
"             ...+++++++++++...@@              ++++#             ",
"           ++++++++++++++++++.@@@@              +++##           ",
"           +++++++++++++++++++####              +++##           ",
"           +++++++++++++++++++####              +++##           ",
"           +++++++++++++++++++++##            +++++##           ",
"           +++++++++++++++++++++##            +++++##           ",
"           ++%%%@@++++++%%%@@+++##         ++++++++             ",
"           ++++++++%%+++++++++++##        ++++####              ",
"           ++++++++%%+++++++++++##        ++++####              ",
"           +++++++%++%++++++++++&&+++++++++**#                  ",
"             +++++++++++++++++&&+++++++++++##                   ",
"             +++++++++++++++++&&+++++++++++##                   ",
"              +++++++++++++&&&+++++++++++++                     ",
"              +++++++++++++&&&+++++++++++++                     ",
"                  &&&&&&&&&++++++++++++++++                     ",
"                   ++===++++++++++++++++++                      ",
"                   ++===++++++++++++++++++                      ",
"                   ++===++++++++++++++++++                      ",
"                   +++++++++++++++++++++++                      ",
"                   +++++++++++++++++++++++                      ",
"                   ##++++++##++++++##++++++                     ",
"                   ##++++++##++++++##++++++                     ",
"                     #+++++##+++++####+++++                     ",
"                        +++##     ####+++++                     ",
"                        +++##     ####+++++                     ",
"                        +++##     ###   +++                     ",
"                                                                ",
"                                                                ",
"                                                                ",
"                                                                ",
"                                                                ",
"                                                                ",
"                                                                ",
"                                                                ",
"                                                                ",
"                                                                ",
"                                                                ",
"                                                                ",
"                                                                ",
"                                                                ",
"                                                                ",
"                                                                ",
"                                                                ",
"                                                                "};
