/* XPM */
static char * enemyA_xpm[] = {
"64 64 10 1",
" 	c #000000",
".	c #404040",
"+	c #6A6A6A",
"@	c #5E5E5E",
"#	c #272727",
"$	c #094A06",
"%	c #0F0F0F",
"&	c #DDDDDD",
"*	c #008E8E",
"=	c #040DC9",
"                                                                ",
"                                                                ",
"                                                                ",
"                                                                ",
"                                                                ",
"                                                                ",
"                                                                ",
"                                                                ",
"                                                                ",
"                                                                ",
"                                                                ",
"                                                                ",
"                                                                ",
"                                                                ",
"                                   ..         ..                ",
"                                   ..         ..                ",
"                                  +...       +....              ",
"                                  +...       +....              ",
"             @####              ++.$$.########..$$.             ",
"           @@#####              ++...###########...             ",
"           @@#####              ++...###########...             ",
"          @###                ++++.##################           ",
"          @###                @@@@#%%%%%######%%%%%##           ",
"          @###                @@@@#%%%%%######%%%%%##           ",
"          @#####              @@##%%%%&&%%###%%%%&&%%           ",
"          @#####              @@##%%%%&&%%###%%%%&&%%           ",
"           @@########         @@##%%%%&&%%###%%%%&&%%           ",
"              @@@@####        @@###%%%%%###&&#%%%%%##           ",
"              @@@@####        @@###%%%%%###&&#%%%%%##           ",
"                  @@@#########**##########&##&#######           ",
"                   @@###########**#################             ",
"                   @@###########**#################             ",
"                     #############***#############              ",
"                     #############***#############              ",
"                     ################*********                  ",
"                      ##################===##                   ",
"                      ##################===##                   ",
"                      ##################===##                   ",
"                      #######################                   ",
"                      #######################                   ",
"                     ######@@######@@######@@                   ",
"                     ######@@######@@######@@                   ",
"                     #####@@@@#####@@#####@                     ",
"                     #####@@@@     @@###                        ",
"                     #####@@@@     @@###                        ",
"                     ###   @@@     @@###                        ",
"                                                                ",
"                                                                ",
"                                                                ",
"                                                                ",
"                                                                ",
"                                                                ",
"                                                                ",
"                                                                ",
"                                                                ",
"                                                                ",
"                                                                ",
"                                                                ",
"                                                                ",
"                                                                ",
"                                                                ",
"                                                                ",
"                                                                ",
"                                                                "};
