/* XPM */
static char * enemyH_xpm[] = {
"64 64 9 1",
" 	c #000000",
".	c #404040",
"+	c #6A6A6A",
"@	c #272727",
"#	c #5E5E5E",
"$	c #094A06",
"%	c #DDDDDD",
"&	c #008E8E",
"*	c #040DC9",
"                                                                ",
"                                                                ",
"                                                                ",
"                                                                ",
"                                                                ",
"                                                                ",
"                                                                ",
"                                                                ",
"                                                                ",
"                                                                ",
"                                                                ",
"                                                                ",
"                                                                ",
"                                                                ",
"                ..         ..                                   ",
"                ..         ..                                   ",
"              ....+       ...+                     @@#          ",
"              ....+       ...+                     @@#          ",
"             .$$..@@@@@@@@.$$.++                   @@@##        ",
"             ...@@@@@@@@@@@...++                   @@@##        ",
"             ...@@@@@@@@@@@...++                   @@@##        ",
"           @@@@@@@@@@@@@@@@@@.++++            @@@@@@@@##        ",
"           @@@@@@@@@@@@@@@@@@@####           @@@@@@@@#          ",
"           @@@@@@@@@@@@@@@@@@@####           @@@@@@@@#          ",
"           @@@@@@@@@@@@@@@@@@@@@##           @@@##              ",
"           @@@@@@@@@@@@@@@@@@@@@##           @@@##              ",
"           @@%%%++@@@@@@%%%++@@@##         @@@##                ",
"           @@@@@@@@%%@@@@@@@@@@@##         @@@##                ",
"           @@@@@@@@%%@@@@@@@@@@@##         @@@##                ",
"           @@@@@@@%@@%@@@@@@@@@@&&@@@@@@@@ @@#                  ",
"             @@@@@@@@@@@@@@@@@&&@@@@@@@@@@@@@#                  ",
"             @@@@@@@@@@@@@@@@@&&@@@@@@@@@@@@@#                  ",
"              @@@@@@@@@@@@@&&&@@@@@@@@@@@@@##                   ",
"              @@@@@@@@@@@@@&&&@@@@@@@@@@@@@##                   ",
"                  &&&&&&&&&@@@@@@@@@@@@@@@@                     ",
"                   @@***@@@@@@@@@@@@@@@@@@#                     ",
"                   @@***@@@@@@@@@@@@@@@@@@#                     ",
"                   @@***@@###@@@@@@@@@@@@@#                     ",
"                   @@@@@##@@@@@@@@@@@@@@@@#                     ",
"                   @@@@@##@@@@@@@@@@@@@@@@#                     ",
"                     @##@@@@@#@@@@#@@@@@@@###                   ",
"                     @##@@@@@#@@@@#@@@@@@@###                   ",
"                     ###@@@###@@@@#@@@@@#####                   ",
"                     #####@##     ###@@@                        ",
"                     #####@##     ###@@@                        ",
"                     #####         @@@@@                        ",
"                                                                ",
"                                                                ",
"                                                                ",
"                                                                ",
"                                                                ",
"                                                                ",
"                                                                ",
"                                                                ",
"                                                                ",
"                                                                ",
"                                                                ",
"                                                                ",
"                                                                ",
"                                                                ",
"                                                                ",
"                                                                ",
"                                                                ",
"                                                                "};
