/* XPM */
static char * enemyF_xpm[] = {
"64 64 11 1",
" 	c #000000",
".	c #404040",
"+	c #272727",
"@	c #6A6A6A",
"#	c #5E5E5E",
"$	c #094A06",
"%	c #0F0F0F",
"&	c #DDDDDD",
"*	c #008E8E",
"=	c #1F1F1F",
"-	c #040DC9",
"                                                                ",
"                                                                ",
"                                                                ",
"                                                                ",
"                                                                ",
"                                                                ",
"                                                                ",
"                                                                ",
"                                                                ",
"                                                                ",
"                                                                ",
"                                                                ",
"                                                                ",
"                                                                ",
"                ..         ..                +++                ",
"                ..         ..                +++                ",
"              ....@       ...@               +++##              ",
"              ....@       ...@               +++##              ",
"             .$$..++++++++.$$.@@              ++++#             ",
"             ...+++++++++++...@@              ++++#             ",
"             ...+++++++++++...@@              ++++#             ",
"           ++++++++++++++++++.@@@@              +++##           ",
"           ++%%%%%++++++%%%%%+####              +++##           ",
"           ++%%%%%++++++%%%%%+####              +++##           ",
"           %%&&%%%%+++%%&&%%%%++##            +++++##           ",
"           %%&&%%%%+++%%&&%%%%++##            +++++##           ",
"           %%&&%%%%+++%%&&%%%%++##         ++++++++             ",
"           ++%%%%%+&&+++%%%%%+++##        ++++####              ",
"           ++%%%%%+&&+++%%%%%+++##        ++++####              ",
"           +++++++&++&++++++++++**+++++++++==#                  ",
"             +++++++++++++++++**+++++++++++##                   ",
"             +++++++++++++++++**+++++++++++##                   ",
"              +++++++++++++***+++++++++++++                     ",
"              +++++++++++++***+++++++++++++                     ",
"                  *********++++++++++++++++                     ",
"                   ++---++++++++++++++++++#                     ",
"                   ++---++++++++++++++++++#                     ",
"                   ++---++++++++++#+++++++#                     ",
"                  #++++++++##+++###+++++###                     ",
"                  #++++++++##+++###+++++###                     ",
"                ###++++++++++#++##++++++##                      ",
"                ###++++++++++#++##++++++##                      ",
"                #####++++++++#####++++#####                     ",
"                          ++++     +++#####                     ",
"                          ++++     +++#####                     ",
"                           +++          ###                     ",
"                                                                ",
"                                                                ",
"                                                                ",
"                                                                ",
"                                                                ",
"                                                                ",
"                                                                ",
"                                                                ",
"                                                                ",
"                                                                ",
"                                                                ",
"                                                                ",
"                                                                ",
"                                                                ",
"                                                                ",
"                                                                ",
"                                                                ",
"                                                                "};
