/* XPM */
static char * exit_open4_xpm[] = {
"64 64 68 1",
" 	c #000000",
".	c #603700",
"+	c #FFFFFF",
"@	c #683D00",
"#	c #6E4200",
"$	c #855200",
"%	c #905A00",
"&	c #925B00",
"*	c #8C5700",
"=	c #8B5600",
"-	c #8F5900",
";	c #885400",
">	c #784800",
",	c #F8F8F8",
"'	c #744600",
")	c #7C4B00",
"!	c #825000",
"~	c #875300",
"{	c #955D00",
"]	c #945D00",
"^	c #996000",
"/	c #9C6200",
"(	c #8A5600",
"_	c #8E5800",
":	c #975F00",
"<	c #9B6100",
"[	c #9B6200",
"}	c #804E00",
"|	c #D59000",
"1	c #915B00",
"2	c #E9E9E9",
"3	c #895500",
"4	c #975E00",
"5	c #965E00",
"6	c #9A6100",
"7	c #8D5800",
"8	c #985F00",
"9	c #7F4D00",
"0	c #734500",
"a	c #955E00",
"b	c #986000",
"c	c #7D4C00",
"d	c #4E2D00",
"e	c #835200",
"f	c #845200",
"g	c #6B4100",
"h	c #825100",
"i	c #5F3900",
"j	c #553200",
"k	c #744700",
"l	c #835100",
"m	c #815000",
"n	c #7F4E00",
"o	c #7C4D00",
"p	c #7B4C00",
"q	c #7D4D00",
"r	c #804F00",
"s	c #6A4000",
"t	c #643C00",
"u	c #754800",
"v	c #7E4E00",
"w	c #764900",
"x	c #734700",
"y	c #673E00",
"z	c #5B3600",
"A	c #6F4400",
"B	c #7C4C00",
"C	c #805000",
"                                                                ",
"                                                                ",
"                                                                ",
"                                                                ",
"                                                                ",
"                                                                ",
"            .........................................           ",
"           ...........................................          ",
"           ...+...................@#$%&*=--;>@........          ",
"           ..+,,.@#')!~~~!))!~&&{]^//////////^(@......          ",
"           ..+,,'_:<[//////////////////////////<}.....          ",
"           ..+,,|||||++++++++++++++++++++++++++++1....          ",
"           .+,,,2||||||||||||++++++++++++++++++++/3...          ",
"           +,,,,,2||||||||||||||||||||+++++++++++//...          ",
"          +,,,,,,22||||||||||||||||||||||||++++++//3..          ",
"           ,,,,,,2|||||||||||||||||||||||||++++++//1..          ",
"           .,,,,2||||||||||||||||||||||||||++++++//4..          ",
"           ..,,2|||||||||||||||||||||||||||++++++//{..          ",
"           ..,,2|||||||||||||||||||||||||||++++++//5..          ",
"           .@,,2|||||||||||||||||||||||||||++++++//5..          ",
"           .>/2/|||||||||||||||||||||||||||++++++//5..          ",
"           .;///|||||||||||||||||||||||||||++++++//5..          ",
"           .-///|||||||||||||||||||||||||||++++++//5..          ",
"           .&///|||||||||||||||||||||||||||++++++//5..          ",
"           .&///|||||||||||||||||||||||||||++++++//4..          ",
"           .=///|||||||||||||||||||||||||||++++++//6..          ",
"           .>///|||||||||||||||||||||||||||++++++///@.          ",
"           ..6//|||||||||||||||||||||||||||++++++///;.          ",
"           ..-//|||||||||||||||||||||||||||++++++///%.          ",
"           ..!//|||||||||||||||||||||||||||++++++///&.          ",
"           ..@[/|||||||||||||||||||||||||||++++++///7.          ",
"           ...8/|||||||||||||||||||||||||||++++++///-.          ",
"           ...5/|||||||||||||||||||||||//||++++++///&.          ",
"           ...&/||||||||||||||||||||||///||++++++///&.          ",
"           ...&/||||||||||||||||||||||///||++++++///&.          ",
"           ...~/|||||||||||||||||||||||||||++++++///-.          ",
"           ...*/|||||||||||||||||||||||||||++++++///%.          ",
"           ...6/|||||||||||||||||||||||||||++++++///*.          ",
"           ..9//|||||||||||||||||||||||||||++++++///*.          ",
"           ..{//|||||||||||||||||||||||||||++++++///!.          ",
"           .06//|||||||||||||||||||||||||||++++++//[>.          ",
"           .9[//|||||||||||||||||||||||||||++++++//6@.          ",
"           .~///|||||||||||||||||||||||||||++++++//a..          ",
"           .~///|||||||||||||||||||||||||||++++++//7..          ",
"           .~///|||||||||||||||||||||||||||++++++//+..          ",
"           .![//|||||||||||||||||||||||||||++++++/+,,.          ",
"           .>[//|||||||||||||||||||||||||||++++++/+,,.          ",
"           .@6//|||||||||||||||||||||||||||++++++/+,,.          ",
"           ..b//|||||||||||||||||||||||||||+++++++,,,2          ",
"           ..4//|||||||||||||||||||||||||||++++++,,,,,2         ",
"           ..5//|||||||||||||||||||||||||||+++++,,,,,,22        ",
"           ..4//|||||||||||||||||||||||||||+++++,,,,,,2         ",
"           ..5//|||||||||||||||||||||||||||++++++,,,,2          ",
"           ..%//||||||||||||||||||||||+++++++++++/,,2.          ",
"           ..c//||||||||||||||+++++++++++++++++++/,,2.          ",
"           ...6/|||||++++++++++++++++++++++++++++/,,2.          ",
"    dddddddd..ceffffffffffffffffffffffffffffffffff/2.ddddddd    ",
"   ddddddddddddg!fffffffffffffffffffffffffffffffffhiddddddddd   ",
"   dddddddddddddjk!ffffffffffflmnopppqr!lffffffff!sdddddddddd   ",
"   dddddddddddddddjtuovpuwppxyzjdddddddjzyABChhruiddddddddddd   ",
"    ddddddddddddddddddddddddddddddddddddddddjttidddddddddddd    ",
"                                                                ",
"                                                                ",
"                                                                "};
