/* XPM */
static char * exit_closed1_xpm[] = {
"64 64 4 1",
" 	c #000000",
".	c #603700",
"+	c #985700",
"@	c #F3AB00",
"                                                                ",
"                                                                ",
"                                                                ",
"                                                                ",
"                                                                ",
"                                                                ",
"                                                                ",
"        ...........................                             ",
"       ..................................                       ",
"       ................................................         ",
"       .................................................        ",
"       .................................................        ",
"       .................................................        ",
"        ................................................        ",
"        ........++++++++++++++..........................        ",
"        ........+++++++++++++++++++++...................        ",
"        ........+++++++++++++++++++++++++++++++++.......        ",
"        ........+++++++++++++++++++++++++++++++++.......        ",
"         .......+++++++++++++++++++++++++++++++++.......        ",
"         .......+++++++++++++++++++++++++++++++++.......        ",
"         .......+++++++++++++++++++++++++++++++++.......        ",
"         .......+++++++++++++++++++++++++++++++++.......        ",
"         .......+++++++++++++++++++++++++++++++++.......        ",
"         .......+++++++++++++++++++++++++++++++++.......        ",
"         .......++++++++++++@@@@@@@++++++++++++++.......        ",
"         ........++++++++++@@@@@@@@@@++++++++++++.......        ",
"         ........++++++++++@@@@@@@@@@@+++++++++++.......        ",
"         ........+++++++++@@@@@+@@@@@@+++++++++++.......        ",
"         ........+++++++++@@@@++++@@@@+++++++++++.......        ",
"         ........+++++++++@@@@+++++@@@+++++++++++.......        ",
"          .......+++++++++@@@++++++@@@+++++++++++.......        ",
"          .......+++++++++@@@++++++@@@+++++++++++.......        ",
"          .......+++++++++@@@++++++@@@+++++++++++.......        ",
"          .......+++++++++@@@++++++@@@+++++++++++.......        ",
"          .......++++++++@@@@@+++++@@@+++++++++++.......        ",
"          .......++++++++@@@@@@@@@@@@@+++++++++++.......        ",
"          .......++++++++@@@@@@@@@@@@@@++++++++++.......        ",
"          ........+++++++@@@@@@@@@@@@@@++++++++++.......        ",
"          ........+++++++@@@@@@@@@@@@@@++....++++.......        ",
"          ........+++++++@@@@@@@@@@@@@@++.....+++.......        ",
"          ........+++++++@@@@@@@@@@@@@@++.....+++.......        ",
"           .......+++++++@@@@@@@@@@@@@@++.....+++.......        ",
"           .......+++++++@@@@@@@@@@@@@@+++....+++.......        ",
"           .......+++++++@@@@@@@@@@@@@@++++++++++.......        ",
"           .......++++++++@@@@@@@@@@@@+++++++++++.......        ",
"           .......++++++++@@@@@@@@@@@@+++++++++++.......        ",
"           .......++++++++@@@@@@@@@@@@+++++++++++.......        ",
"           .......+++++++++++++++++++++++++++++++.......        ",
"           .......+++++++++++++++++++++++++++++++.......        ",
"           .......+++++++++++++++++++++++++++++++.......        ",
"           .......+++++++++++++++++++++++++++++++.......        ",
"           .......+++++++++++++++++++++++++++++++.......        ",
"           .......+++++++++++++++++++++++++++++++.......        ",
"           .......+++++++++++++++++++++++++++++++.......        ",
"           .......+++++++++++++++++++++++++++++++.......        ",
"           .......+++++++++++++++++++++++++++++++.......        ",
"           .......+++++++++++++++++++++++++++++++.......        ",
"           .......+++++++++++++++++++++++++++++++.......        ",
"           .......+++++++++++++++++++++++++++++++.......        ",
"           .......+++++++++++++++++++++++++++++++.......        ",
"           .......+++++++++++++++++++++++++++++++.......        ",
"           .......+++++++++++++++++++++++++++++++.......        ",
"           .......+++++++++++++++++++++++++++++++.......        ",
"           .......+++++++++++++++++++++++++++++++.......        "};
