/* XPM */
static char * exit_open1_xpm[] = {
"64 64 4 1",
" 	c #000000",
".	c #603700",
"+	c #985700",
"@	c #FFFFFF",
"                                                                ",
"                                                                ",
"                                                                ",
"                                                                ",
"                                                                ",
"                                                                ",
"                                                                ",
"        ...........................                             ",
"       ..................................                       ",
"       ................................................         ",
"       .................................................        ",
"       .................................................        ",
"       .................................................        ",
"        ................................................        ",
"        ........++@@@@@@@@@@@@..........................        ",
"        ........+++++++@@@@@@@@@@@@@@...................        ",
"        ........++++++++@@@@@@@@@@@@@@@@@@@@@@@@@.......        ",
"        ........++++++++++++@@@@@@@@@@@@@@@@@@@@@.......        ",
"         .......+++++++++++++@@@@@@@@@@@@@@@@@@@@.......        ",
"         .......++++++++++++++++@@@@@@@@@@@@@@@@@.......        ",
"         .......+++++++++++++++++++@@@@@@@@@@@@@@.......        ",
"         .......++++++++++++++++++++++@@@@@@@@@@@.......        ",
"         .......++++++++++++++++++++++++@@@@@@@@@.......        ",
"         .......++++++++++++++++++++++++@@@@@@@@@.......        ",
"         .......++++++++++++++++++++++++@@@@@@@@@.......        ",
"         ........+++++++++++++++++++++++@@@@@@@@@.......        ",
"         ........+++++++++++++++++++++++@@@@@@@@@.......        ",
"         ........+++++++++++++++++++++++@@@@@@@@@.......        ",
"         ........+++++++++++++++++++++++@@@@@@@@@.......        ",
"         ........+++++++++++++++++++++++@@@@@@@@@.......        ",
"          .......+++++++++++++++++++++++@@@@@@@@@.......        ",
"          .......+++++++++++++++++++++++@@@@@@@@@.......        ",
"          .......+++++++++++++++++++++++@@@@@@@@@.......        ",
"          .......+++++++++++++++++++++++@@@@@@@@@.......        ",
"          .......+++++++++++++++++++++++@@@@@@@@@.......        ",
"          .......+++++++++++++++++++++++@@@@@@@@@.......        ",
"          .......+++++++++++++++++++++++@@@@@@@@@.......        ",
"          ........++++++++++++++++++++++@@@@@@@@@.......        ",
"          ........++++++++++++++++++++++@@@@@@@@@.......        ",
"          ........++++++++++++++++++++++@@@@@@@@@.......        ",
"          ........++++++++++++++++++++++@@@@@@@@@.......        ",
"           .......++++++++++++++++++++++@@@@@@@@@.......        ",
"           .......+++++++++++++++++..+++@@@@@@@@@.......        ",
"           .......+++++++++++++++++...++@@@@@@@@@.......        ",
"           .......++++++++++++++++++..++@@@@@@@@@.......        ",
"           .......+++++++++++++++++++++++@@@@@@@@.......        ",
"           .......+++++++++++++++++++++++@@@@@@@@.......        ",
"           .......+++++++++++++++++++++++@@@@@@@@.......        ",
"           .......+++++++++++++++++++++++@@@@@@@@.......        ",
"           .......+++++++++++++++++++++++@@@@@@@@.......        ",
"           .......+++++++++++++++++++++++@@@@@@@@.......        ",
"           .......+++++++++++++++++++++++@@@@@@@@.......        ",
"           .......+++++++++++++++++++++++@@@@@@@@.......        ",
"           .......+++++++++++++++++++++++@@@@@@@@.......        ",
"           .......+++++++++++++++++++++++@@@@@@@@.......        ",
"           .......+++++++++++++++++++++++@@@@@@@@.......        ",
"           .......+++++++++++++++++++++++@@@@@@@@.......        ",
"           .......+++++++++++++++++++++++@@@@@@@@.......        ",
"           .......+++++++++++++++++++++@@@@@@@@@@.......        ",
"           .......++++++++++++++++++@@@@@@@@@@@@@.......        ",
"           .......+++++++++++++++@@@@@@@@@@@@@@@@.......        ",
"           .......++++++++++++@@@@@@@@@@@@@@@@@@@.......        ",
"           .......+++++@@@@@@@@@@@@@@@@@@@@@@@@@@.......        ",
"           .......+@@@@@@@@@@@@@@@@@@@@@@@@@@@@@@.......        "};
