/* XPM */
static char * exit_open2_xpm[] = {
"64 64 66 1",
" 	c #000000",
".	c #603700",
"+	c #643A00",
"@	c #734500",
"#	c #895500",
"$	c #905A00",
"%	c #955D00",
"&	c #965E00",
"*	c #935C00",
"=	c #8E5900",
"-	c #825000",
";	c #784800",
">	c #683D00",
",	c #8B5600",
"'	c #915B00",
")	c #875300",
"!	c #7F4D00",
"~	c #764700",
"{	c #9C6200",
"]	c #9B6200",
"^	c #996000",
"/	c #9B6100",
"(	c #985F00",
"_	c #794900",
":	c #975F00",
"<	c #885400",
"[	c #6B4000",
"}	c #925B00",
"|	c #D59000",
"1	c #FFFFFF",
"2	c #7C4C00",
"3	c #8A5500",
"4	c #855200",
"5	c #8D5800",
"6	c #F8F8F8",
"7	c #9A6100",
"8	c #E9E9E9",
"9	c #945D00",
"0	c #8F5900",
"a	c #975E00",
"b	c #D48F00",
"c	c #955E00",
"d	c #4E2D00",
"e	c #845200",
"f	c #5F3900",
"g	c #804F00",
"h	c #704400",
"i	c #7A4C00",
"j	c #825100",
"k	c #7A4B00",
"l	c #7B4C00",
"m	c #7F4F00",
"n	c #815000",
"o	c #794B00",
"p	c #734700",
"q	c #6F4400",
"r	c #603A00",
"s	c #734600",
"t	c #7D4D00",
"u	c #744700",
"v	c #553200",
"w	c #643C00",
"x	c #784A00",
"y	c #835100",
"z	c #5B3600",
"A	c #673E00",
"                                                                ",
"                                                                ",
"                                                                ",
"                                                                ",
"                                                                ",
"                                                                ",
"            .........................................           ",
"           ...........................................          ",
"           .....+@#$%%&&&*=-;>...;,$$'%%',)!@.........          ",
"           ...+~'{{{{{{{{{{{]^&&/{{{{{{{{{{]/(,>......          ",
"           ..+_:{{{{{{{{{{{{{{{{{{{{{{{{{{{{{{{{<>....          ",
"           ..[}{|||||1111111111111111111111111111*>...          ",
"           .+2{{|||||||||||||11111111111111111111{3...          ",
"           .><{{||||||||||||||||||||||11111111111{{>..          ",
"           .><{{|||||||||||||||||||||||||||111111{{4..          ",
"           .+2{{|||||||||||||||||||||||||||111111{{,..          ",
"         1 ..[}{|||||||||||||||||||||||||||111111{{5..          ",
"        166..+_^|||||||||||||||||||||||||||111111{{-..          ",
"        166...+&|||||||||||||||||||||||||||111111{];..          ",
"        166....#|||||||||||||||||||||||||||111111{7>..          ",
"       16668...#|||||||||||||||||||||||||||111111{]...          ",
"      1666668.@7|||||||||||||||||||||||||||111111{{;..          ",
"     1666666889{|||||||||||||||||||||||||||111111{{,..          ",
"      6666668@]{|||||||||||||||||||||||||||111111{{$..          ",
"       66668.,{{|||||||||||||||||||||||||||111111{{$..          ",
"        668..9{{|||||||||||||||||||||||||||111111{{0..          ",
"        668..a{{|||||||||||||||||||||||||||111111{{0..          ",
"        668..&{{|||||||||||||||||||||||||||111111{{,..          ",
"         8 ..&{{|||||||||||||||||||||||||||111111{{)..          ",
"           ..&{{|||||||||||||||||||||||||||111111{{-..          ",
"           ..%{{||||||||||||||||||||||||b||111111{];..          ",
"           ..%{{|||||||||||||||||||||||||||111111{]>..          ",
"           ..5{{|||||||||||||||||||||||{{||111111{{;..          ",
"           ..-{{||||||||||||||||||||||{{{||111111{{a..          ",
"           ...{{||||||||||||||||||||||{{{||111111{{{>.          ",
"           ...%{|||||||||||||||||||||||||||111111{{{#.          ",
"           ...}{|||||||||||||||||||||||||||111111{{{=.          ",
"           ..>^{|||||||||||||||||||||||||||111111{{{$. 1        ",
"           ..;/{|||||||||||||||||||||||||||111111{{{,.166       ",
"           ..-]{|||||||||||||||||||||||||||111111{{{0.166       ",
"           ..){{|||||||||||||||||||||||||||111111{{{}.166       ",
"           ..#{{|||||||||||||||||||||||||||111111{{{}16668      ",
"           ..'{{|||||||||||||||||||||||||||111111{{{1666668     ",
"           .>%{{|||||||||||||||||||||||||||111111{{166666688    ",
"           .>:{{|||||||||||||||||||||||||||111111{{{6666668     ",
"           .>a{{|||||||||||||||||||||||||||111111{{{}66668      ",
"           ..c{{|||||||||||||||||||||||||||111111{{{}.668       ",
"           ..5{{|||||||||||||||||||||||||||111111{{{}.668       ",
"           ..;{{|||||||||||||||||||||||||||111111{{{0.668       ",
"           ..;{{|||||||||||||||||||||||||||111111{{{,. 8        ",
"           ..%{{|||||||||||||||||||||||||||111111{{{-.          ",
"           .@]{{|||||||||||||||||||||||||||111111{{];.          ",
"           .){{{|||||||||||||||||||||||||||111111{{7>.          ",
"           .={{{||||||||||||||||||||||11111111111{{%..          ",
"           .#{{{||||||||||||||1111111111111111111{{4..          ",
"           .@{{{|||||1111111111111111111111111111{{...          ",
"    dddddddd.*{eeeeeeeeeeeeeeeeeeeeeeeeeeeeeeeeeee-..ddddddd    ",
"   ddddddddddfgeeeeeeeeeeeeeeeeeeeeeeeeeeeeeeeeeehddddddddddd   ",
"   dddddddddddfieeeeeeeeeeeejklmnnng2opqrrs2gntuvdddddddddddd   ",
"   dddddddddddddwxgyyyyjn2uvdddvzzvddddddddvzzvdddddddddddddd   ",
"    ddddddddddddddvzAAwvdddddddddddddddddddddddddddddddddddd    ",
"                                                                ",
"                                                                ",
"                                                                "};
