/* XPM */
static char * exit_open1_xpm[] = {
"64 64 74 1",
" 	c #000000",
".	c #603700",
"+	c #643A00",
"@	c #734500",
"#	c #7F4D00",
"$	c #8A5600",
"%	c #925B00",
"&	c #975F00",
"*	c #996000",
"=	c #985F00",
"-	c #986000",
";	c #975E00",
">	c #965E00",
",	c #955D00",
"'	c #915B00",
")	c #855200",
"!	c #764700",
"~	c #8B5600",
"{	c #9C6200",
"]	c #9B6100",
"^	c #8D5800",
"/	c #794900",
"(	c #FFFFFF",
"_	c #6B4000",
":	c #D59000",
"<	c #F8F8F8",
"[	c #7C4C00",
"}	c #784800",
"|	c #683D00",
"1	c #8A5500",
"2	c #935C00",
"3	c #E9E9E9",
"4	c #905A00",
"5	c #875300",
"6	c #9B6200",
"7	c #825000",
"8	c #7C4B00",
"9	c #9A6100",
"0	c #6E4200",
"a	c #945D00",
"b	c #8F5900",
"c	c #8C5700",
"d	c #D49000",
"e	c #D18D00",
"f	c #744600",
"g	c #895500",
"h	c #7D4C00",
"i	c #4E2D00",
"j	c #885400",
"k	c #845200",
"l	c #553200",
"m	c #744700",
"n	c #7F4F00",
"o	c #7E4E00",
"p	c #7F4E00",
"q	c #815000",
"r	c #835100",
"s	c #683F00",
"t	c #613A00",
"u	c #764800",
"v	c #7D4D00",
"w	c #804F00",
"x	c #7A4B00",
"y	c #754800",
"z	c #764900",
"A	c #7B4C00",
"B	c #794B00",
"C	c #6D4200",
"D	c #5F3900",
"E	c #6A4000",
"F	c #714500",
"G	c #7D4E00",
"H	c #5B3600",
"I	c #774900",
"                                                                ",
"                                                                ",
"                                                                ",
"                                                                ",
"                                                                ",
"                                                                ",
"            .........................................           ",
"           ...........................................          ",
"           .....+@#$%&********=&===--=;>>>>>,')@......          ",
"           ...+!~-{{{{{{{{{{{{{{{{{{{{{{{{{{{{{]^@....          ",
"           ..+/,{{{{{{{{{{{{{{{{{{{{{{{{{{{{{{{{{,@...          ",
"          (.._%{:::::(((((((((((((((((((((((((((({'...          ",
"         (<<+[{{:::::::::::::(((((((((((((((((((({{}..          ",
"         (<<|1{{::::::::::::::::::::::((((((((((({{,..          ",
"         (<<|2{{:::::::::::::::::::::::::::(((((({{{|.          ",
"        (<<<3]{{:::::::::::::::::::::::::::(((((({{{~.          ",
"       (<<<<<3{{:::::::::::::::::::::::::::(((((({{{4.          ",
"      (<<<<<<33{:::::::::::::::::::::::::::(((((({{{%.          ",
"       <<<<<<3{{:::::::::::::::::::::::::::(((((({{{5.          ",
"        <<<<3{{{:::::::::::::::::::::::::::(((((({{{5.          ",
"         <<36{{{:::::::::::::::::::::::::::(((((({{{5.          ",
"         <<3{{{{:::::::::::::::::::::::::::(((((({{{5.          ",
"         <<3{{{{:::::::::::::::::::::::::::(((((({{{5.          ",
"          35{{{{:::::::::::::::::::::::::::(((((({{{5.          ",
"           5{{{{:::::::::::::::::::::::::::(((((({{{5.          ",
"           5{{{{:::::::::::::::::::::::::::(((((({{{7.          ",
"           5{{{{:::::::::::::::::::::::::::(((((({{68.          ",
"           5{{{{:::::::::::::::::::::::::::(((((({{90.          ",
"           5{{{{:::::::::::::::::::::::::::(((((({{*|.          ",
"           5{{{{:::::::::::::::::::::::::::(((((({{&..          ",
"           5{{{{:::::::::::::::::::::::::::(((((({{a..          ",
"           76{{{:::::::::::::::::::::::::::(((((({{b..          ",
"           }6{{{:::::::::::::::::::::::{{::(((((({{~..          ",
"           |9{{{::::::::::::::::::::::{{{::(((((({{c..          ",
"           .&{{{::::::::::::::::::::::{{{::(((((({{c..          ",
"           .4{{{:::::::d:::::::::::::::::::(((((({{c..          ",
"           .4{{{:::::::e:::::::::::::::::::(((((({{7..          ",
"           .c{{{:::::::::::::::::::::::::::(((((({68..          ",
"           .5{{{:::::::::::::::::::::::::::(((((({6f..          ",
"           .@6{{:::::::::::::::::::::::::::(((((({]f..  (       ",
"           ..9{{:::::::::::::::::::::::::::(((((({9f.. (<<      ",
"           ..>{{:::::::::::::::::::::::::::(((((({9f.. (<<      ",
"           ..a{{:::::::::::::::::::::::::::(((((({9f.. (<<      ",
"           ..%{{:::::::::::::::::::::::::::(((((({9f..(<<<3     ",
"           ..c{{:::::::::::::::::::::::::::(((((({6f.(<<<<<3    ",
"           ..5{{:::::::::::::::::::::::::::(((((({{f(<<<<<<33   ",
"           ..5{{:::::::::::::::::::::::::::(((((({{1.<<<<<<3    ",
"           ..~{{:::::::::::::::::::::::::::(((((({{4..<<<<3     ",
"           ..4{{:::::::::::::::::::::::::::(((((({{%.. <<3      ",
"           ..,{{:::::::::::::::::::::::::::(((((({{g.. <<3      ",
"           .|>{{:::::::::::::::::::::::::::(((((({{~.. <<3      ",
"           .|&{{:::::::::::::::::::::::::::(((((({{b..  3       ",
"           .|>{{:::::::::::::::::::::::::::(((((({{%..          ",
"           ..%{{::::::::::::::::::::::((((((((((({{%..          ",
"           ..){{::::::::::::::((((((((((((((((((({{$..          ",
"           ..|{{:::::(((((((((((((((((((((((((((({{h..          ",
"    iiiiiiii..jkkkkkkkkkkkkkkkkkkkkkkkkkkkkkkkkkkk>..iiiiiii    ",
"   iiiiiiiiiiilmkkkkkkkkkkkkk7nnnnnopqrkkkkkkkkkkrsiiiiiiiiii   ",
"   iiiiiiiiiiiiltuvqwpxyzABCliiiiiiiiiDEFGrkkkkk7siiiiiiiiiii   ",
"   iiiiiiiiiiiiiilHHliiiiiiiiiiiiiiiiiiiiiiEIvIsiiiiiiiiiiiii   ",
"    iiiiiiiiiiiiiiiiiiiiiiiiiiiiiiiiiiiiiiiiiiiiiiiiiiiiiiii    ",
"                                                                ",
"                                                                ",
"                                                                "};
