/* XPM */
static char * exit_closed3_xpm[] = {
"64 64 6 1",
" 	c #000000",
".	c #603700",
"+	c #985700",
"@	c #F3AB00",
"#	c #FACD63",
"$	c #4E2D00",
"                                                                ",
"                                                                ",
"                                                                ",
"                                                                ",
"                                                                ",
"                                                                ",
"            .........................................           ",
"           ...........................................          ",
"           ...........................................          ",
"           ...........................................          ",
"           ...........................................          ",
"           .....+++++++++++++++++++++++++++++++++.....          ",
"           .....+++++++++++++++++++++++++++++++++.....          ",
"           .....+++++++++++++++++++++++++++++++++.....          ",
"           .....+++++++++++++++++++++++++++++++++.....          ",
"           .....+++++++++++++++++++++++++++++++++.....          ",
"           .....+++++++++++++++++++++++++++++++++.....          ",
"           .....+++++++++++++++++++++++++++++++++.....          ",
"           .....+++++++++++++++++++++++++++++++++.....          ",
"           .....+++++++++++++++++++++++++++++++++.....          ",
"           .....+++++++++++++++++++++++++++++++++.....          ",
"           .....+++++++++++++++++++++++++++++++++.....          ",
"           .....++++++++++++@@@@@++++++++++++++++.....          ",
"           .....++++++++++@@@@@@@@+++++++++++++++.....          ",
"           .....+++++++++@@@@@@@@@@++++++++++++++.....          ",
"           .....+++++++++#@@@+++@@@@+++++++++++++.....          ",
"           .....++++++++###@+++++@@@@++++++++++++.....          ",
"           .....++++++++###+++++++@@@++++++++++++.....          ",
"           .....++++++++###+++++++@@@++++++++++++.....          ",
"           .....++++++++###+++++++@@@++++++++++++.....          ",
"           .....++++++++@##+++++++@@@++++++++++++.....          ",
"           .....++++++++@@######@@@@@++++++++++++.....          ",
"           .....++++++++@@@######@@@@++++++...+++.....          ",
"           .....++++++++@@@@#######@@+++++.....++.....          ",
"           .....++++++++@@@@@#######@+++++.....++.....          ",
"           .....++++++++@@@@@@@######+++++.....++.....          ",
"           .....++++++++@@@@@@@@#####++++++...+++.....          ",
"           .....++++++++@@@@@@@@@####++++++++++++.....          ",
"           .....++++++++@@@@@@@@@@###++++++++++++.....          ",
"           .....++++++++@@@@@@@@@@@@#++++++++++++.....          ",
"           .....++++++++@@@@@@@@@@@@@++++++++++++.....          ",
"           .....++++++++@@@@@@@@@@@@@++++++++++++.....          ",
"           .....++++++++@@@@@@@@@@@@@++++++++++++.....          ",
"           .....+++++++++@@@@@@@@@@@+++++++++++++.....          ",
"           .....+++++++++++++++++++++++++++++++++.....          ",
"           .....+++++++++++++++++++++++++++++++++.....          ",
"           .....+++++++++++++++++++++++++++++++++.....          ",
"           .....+++++++++++++++++++++++++++++++++.....          ",
"           .....+++++++++++++++++++++++++++++++++.....          ",
"           .....+++++++++++++++++++++++++++++++++.....          ",
"           .....+++++++++++++++++++++++++++++++++.....          ",
"           .....+++++++++++++++++++++++++++++++++.....          ",
"           .....+++++++++++++++++++++++++++++++++.....          ",
"           .....+++++++++++++++++++++++++++++++++.....          ",
"           .....+++++++++++++++++++++++++++++++++.....          ",
"           .....+++++++++++++++++++++++++++++++++.....          ",
"    $$$$$$$$...$$$$$$$$$$$$$$$$$$$$$$$$$$$$$$$$$$$...$$$$$$$    ",
"   $$$$$$$$$$$$$$$$$$$$$$$$$$$$$$$$$$$$$$$$$$$$$$$$$$$$$$$$$$   ",
"   $$$$$$$$$$$$$$$$$$$$$$$$$$$$$$$$$$$$$$$$$$$$$$$$$$$$$$$$$$   ",
"   $$$$$$$$$$$$$$$$$$$$$$$$$$$$$$$$$$$$$$$$$$$$$$$$$$$$$$$$$$   ",
"    $$$$$$$$$$$$$$$$$$$$$$$$$$$$$$$$$$$$$$$$$$$$$$$$$$$$$$$$    ",
"                                                                ",
"                                                                ",
"                                                                "};
