/* XPM */
static char * exit_open3_xpm[] = {
"64 64 66 1",
" 	c #000000",
".	c #603700",
"+	c #6A3E00",
"@	c #8B5600",
"#	c #925B00",
"$	c #905A00",
"%	c #784800",
"&	c #683D00",
"*	c #6E4200",
"=	c #8E5900",
"-	c #9B6200",
";	c #9C6200",
">	c #986000",
",	c #955E00",
"'	c #985F00",
")	c #965E00",
"!	c #804E00",
"~	c #855200",
"{	c #945D00",
"]	c #8D5800",
"^	c #885400",
"/	c #825000",
"(	c #955D00",
"_	c #975F00",
":	c #734500",
"<	c #915B00",
"[	c #9A6100",
"}	c #9B6100",
"|	c #996000",
"1	c #7B4B00",
"2	c #945C00",
"3	c #D59000",
"4	c #FFFFFF",
"5	c #935C00",
"6	c #F8F8F8",
"7	c #704300",
"8	c #E9E9E9",
"9	c #8A5500",
"0	c #895500",
"a	c #744600",
"b	c #875300",
"c	c #7F4D00",
"d	c #8F5900",
"e	c #975E00",
"f	c #875400",
"g	c #8C5700",
"h	c #7C4B00",
"i	c #8A5600",
"j	c #7D4C00",
"k	c #4E2D00",
"l	c #6A4000",
"m	c #825100",
"n	c #845200",
"o	c #835100",
"p	c #5F3900",
"q	c #784A00",
"r	c #6B4100",
"s	c #714500",
"t	c #764900",
"u	c #7C4D00",
"v	c #805000",
"w	c #815000",
"x	c #804F00",
"y	c #744700",
"z	c #553200",
"A	c #643C00",
"                                                                ",
"                                                                ",
"                                                                ",
"                                                                ",
"                                                                ",
"                                                                ",
"            .........................................           ",
"           .....+@#$%......&**&.......................          ",
"           ...+=-;;;;>%.&@,>')$!&..~={]^%&./(_(/:.....          ",
"           ..+<;;;;;;;;[;;;;;;;;}|;;;;;;;[;;;;;;}@:...          ",
"           ..1;;;;;;;;;;;;;;;;;;;;;;;;;;;;;;;;;;;;2:..          ",
"           .+{;;333334444444444444444444444444444;;$..          ",
"           .:|;;333333333333344444444444444444444;;;:.          ",
"           .:|;;333333333333333333333344444444444;;;~.          ",
"         4 .+$;;333333333333333333333333333444444;;;5.          ",
"        466..1-;333333333333333333333333333444444;;;)&          ",
"        466..+@;333333333333333333333333333444444;;;'*          ",
"        466...7;333333333333333333333333333444444;;;'*          ",
"       46668..9;333333333333333333333333333444444;;;'&          ",
"      4666668&(;333333333333333333333333333444444;;;(.          ",
"     466666688|;333333333333333333333333333444444;;;0.          ",
"      6666668a[;333333333333333333333333333444444;;-:.          ",
"       66668.*[;333333333333333333333333333444444;;|..          ",
"        668..%[;333333333333333333333333333444444;;$..          ",
"        668..:|;333333333333333333333333333444444;;b..          ",
"        668..:>;333333333333333333333333333444444;;b..          ",
"         8 ...';333333333333333333333333333444444;;b..          ",
"           ...#;333333333333333333333333333444444;;@..          ",
"           ...c;333333333333333333333333333444444;;d..          ",
"           ....}333333333333333333333333333444444;;#..          ",
"           ....{333333333333333333333333333444444;;{..          ",
"           ....b333333333333333333333333333444444;;)..          ",
"           ....b33333333333333333333333;;33444444;;_&.          ",
"           ....03333333333333333333333;;;33444444;;_&.          ",
"           ....d3333333333333333333333;;;33444444;;_&.          ",
"           ...&)333333333333333333333333333444444;;_..          ",
"           ...*-333333333333333333333333333444444;;e..          ",
"           ...f;333333333333333333333333333444444;;)..          ",
"           ..&e;333333333333333333333333333444444;;(..          ",
"           ..%};333333333333333333333333333444444;;<..          ",
"           ../;;333333333333333333333333333444444;;~..          ",
"           ..b;;333333333333333333333333333444444;;%..          ",
"           ..g;;333333333333333333333333333444444;}*..          ",
"           ..$;;333333333333333333333333333444444;[a..          ",
"           ..@;;333333333333333333333333333444444;}a..          ",
"           ..%;;333333333333333333333333333444444;;a.. 4        ",
"           ...[;333333333333333333333333333444444;;~..466       ",
"           ...$;333333333333333333333333333444444;;$..466       ",
"           ...h;333333333333333333333333333444444;;#..466       ",
"           ...0;333333333333333333333333333444444;;g.46668      ",
"           ...(;333333333333333333333333333444444;;@4666668     ",
"           ..:|;333333333333333333333333333444444;;466666688    ",
"           ..:|;333333333333333333333333333444444;;#6666668     ",
"           ..:);333333333333333333333344444444444;;i.66668      ",
"           ...0;333333333333334444444444444444444;;j..668       ",
"           ...:|333334444444444444444444444444444;_...668       ",
"    kkkkkkkk...lmnnnnnnnnnnnnnnnnnnnnnnnnnnnnnnnnoj..k668kkk    ",
"   kkkkkkkkkkkkkpqmnnnnnnnnnnnnnnnnnnnnnnnnnnnnnorkkkkk8kkkkk   ",
"   kkkkkkkkkkkkkkkplsssssssssssssqqqtttstuvwmmxyzkkkkkkkkkkkk   ",
"   kkkkkkkkkkkkkkkkkkkkkkkkkkkkkkkkkkkkkkkkpAAzkkkkkkkkkkkkkk   ",
"    kkkkkkkkkkkkkkkkkkkkkkkkkkkkkkkkkkkkkkkkkkkkkkkkkkkkkkkk    ",
"                                                                ",
"                                                                ",
"                                                                "};
