/* XPM */
static char * ground_xpm[] = {
"64 64 421 2",
"  	c #58842B",
". 	c #487323",
"+ 	c #528529",
"@ 	c #528328",
"# 	c #517B29",
"$ 	c #4F7625",
"% 	c #4B7426",
"& 	c #4C7527",
"* 	c #588C2A",
"= 	c #598B2A",
"- 	c #3C641E",
"; 	c #467225",
"> 	c #52892C",
", 	c #52892B",
"' 	c #51882A",
") 	c #53852C",
"! 	c #53862A",
"~ 	c #4D7627",
"{ 	c #578B29",
"] 	c #3F691F",
"^ 	c #5C902E",
"/ 	c #5C902C",
"( 	c #496D23",
"_ 	c #476D22",
": 	c #518428",
"< 	c #507A28",
"[ 	c #3C651F",
"} 	c #3D651F",
"| 	c #578A2B",
"1 	c #406A20",
"2 	c #538429",
"3 	c #487324",
"4 	c #51882B",
"5 	c #53892B",
"6 	c #5B8F2D",
"7 	c #487824",
"8 	c #477924",
"9 	c #51812B",
"0 	c #5C8F2A",
"a 	c #5D902B",
"b 	c #3D601E",
"c 	c #3E611F",
"d 	c #3E6121",
"e 	c #4C7124",
"f 	c #538428",
"g 	c #4D7F28",
"h 	c #517827",
"i 	c #4D7725",
"j 	c #53882C",
"k 	c #578A2E",
"l 	c #58892E",
"m 	c #4A7325",
"n 	c #4A7324",
"o 	c #5F912E",
"p 	c #3E6820",
"q 	c #3E6721",
"r 	c #4E7524",
"s 	c #4E7526",
"t 	c #548228",
"u 	c #3D6020",
"v 	c #4C7026",
"w 	c #527928",
"x 	c #4E7826",
"y 	c #53882E",
"z 	c #487726",
"A 	c #518229",
"B 	c #4E7E28",
"C 	c #4C7725",
"D 	c #4D7826",
"E 	c #558329",
"F 	c #497425",
"G 	c #436B22",
"H 	c #436B24",
"I 	c #50872C",
"J 	c #538B2A",
"K 	c #416420",
"L 	c #436320",
"M 	c #40651F",
"N 	c #3F641E",
"O 	c #3E661F",
"P 	c #598A2E",
"Q 	c #5A8B2F",
"R 	c #466F21",
"S 	c #477022",
"T 	c #5B8A2A",
"U 	c #54812C",
"V 	c #54822A",
"W 	c #51832C",
"X 	c #598F2D",
"Y 	c #5E8E2B",
"Z 	c #5E8E2A",
"` 	c #5D8D2A",
" .	c #3B621F",
"..	c #3A631F",
"+.	c #517F27",
"@.	c #496F22",
"#.	c #4F8027",
"$.	c #5B8B28",
"%.	c #5D8D29",
"&.	c #497424",
"*.	c #51862C",
"=.	c #598B28",
"-.	c #588E2C",
";.	c #3A611E",
">.	c #497828",
",.	c #53842B",
"'.	c #4C7322",
").	c #4B7221",
"!.	c #487425",
"~.	c #40601F",
"{.	c #416120",
"].	c #3F6220",
"^.	c #508229",
"/.	c #4F8128",
"(.	c #41671E",
"_.	c #3C6320",
":.	c #4C7225",
"<.	c #548C29",
"[.	c #507D2A",
"}.	c #5F8F2C",
"|.	c #60902D",
"1.	c #436721",
"2.	c #456621",
"3.	c #4B7728",
"4.	c #42681F",
"5.	c #3B6420",
"6.	c #4F7C29",
"7.	c #5F8E2E",
"8.	c #53832D",
"9.	c #55832B",
"0.	c #4E8329",
"a.	c #528B2A",
"b.	c #466A22",
"c.	c #447021",
"d.	c #4A6E24",
"e.	c #598D2B",
"f.	c #5A8929",
"g.	c #55882B",
"h.	c #558829",
"i.	c #518A29",
"j.	c #487522",
"k.	c #487524",
"l.	c #55812A",
"m.	c #548029",
"n.	c #5E9230",
"o.	c #457126",
"p.	c #467227",
"q.	c #578E29",
"r.	c #578D2B",
"s.	c #466F23",
"t.	c #477024",
"u.	c #5E9132",
"v.	c #4B7825",
"w.	c #4B7827",
"x.	c #486924",
"y.	c #447023",
"z.	c #457124",
"A.	c #598D29",
"B.	c #5D912F",
"C.	c #4C7928",
"D.	c #588A29",
"E.	c #4F8B29",
"F.	c #5F9331",
"G.	c #456F23",
"H.	c #5C9230",
"I.	c #4C7926",
"J.	c #486922",
"K.	c #457122",
"L.	c #5D8F2E",
"M.	c #517D24",
"N.	c #4A7122",
"O.	c #4B7223",
"P.	c #406520",
"Q.	c #457221",
"R.	c #558B2B",
"S.	c #548A2C",
"T.	c #477827",
"U.	c #4E852A",
"V.	c #5A872C",
"W.	c #43671F",
"X.	c #52872B",
"Y.	c #52872D",
"Z.	c #568C2A",
"`.	c #497526",
" +	c #4C7D24",
".+	c #4C7C26",
"++	c #4A7726",
"@+	c #4A7627",
"#+	c #548A2A",
"$+	c #487727",
"%+	c #4E8528",
"&+	c #59862B",
"*+	c #446820",
"=+	c #51862A",
"-+	c #467322",
";+	c #4D8429",
">+	c #4A7023",
",+	c #59882C",
"'+	c #558B29",
")+	c #57942D",
"!+	c #477626",
"~+	c #497827",
"{+	c #416920",
"]+	c #507728",
"^+	c #538127",
"/+	c #5A8E2A",
"(+	c #538629",
"_+	c #3F6822",
":+	c #4E8327",
"<+	c #426C20",
"[+	c #436C20",
"}+	c #467527",
"|+	c #426620",
"1+	c #426721",
"2+	c #528528",
"3+	c #406923",
"4+	c #4E8426",
"5+	c #457426",
"6+	c #517829",
"7+	c #437126",
"8+	c #436822",
"9+	c #497625",
"0+	c #4D812C",
"a+	c #487122",
"b+	c #4F7A28",
"c+	c #4F7A2A",
"d+	c #5B8F2B",
"e+	c #5C8E2B",
"f+	c #61942D",
"g+	c #61942F",
"h+	c #446E24",
"i+	c #446E22",
"j+	c #538226",
"k+	c #487125",
"l+	c #568229",
"m+	c #558128",
"n+	c #4A7A26",
"o+	c #497925",
"p+	c #558C2E",
"q+	c #446C23",
"r+	c #446D21",
"s+	c #466C23",
"t+	c #4D822A",
"u+	c #466C21",
"v+	c #426521",
"w+	c #60932C",
"x+	c #477125",
"y+	c #568C2E",
"z+	c #60932E",
"A+	c #4D7D29",
"B+	c #568D2F",
"C+	c #52882A",
"D+	c #54872A",
"E+	c #57832A",
"F+	c #56842A",
"G+	c #5E922D",
"H+	c #5D912C",
"I+	c #4D7628",
"J+	c #497B26",
"K+	c #3F6721",
"L+	c #3E6620",
"M+	c #40631F",
"N+	c #5B882B",
"O+	c #528028",
"P+	c #4C7E29",
"Q+	c #578429",
"R+	c #467525",
"S+	c #41651F",
"T+	c #40641E",
"U+	c #457424",
"V+	c #537F28",
"W+	c #4A7025",
"X+	c #598629",
"Y+	c #3E631E",
"Z+	c #588F2A",
"`+	c #4F8628",
" @	c #508729",
".@	c #5B8D2A",
"+@	c #56872B",
"@@	c #55862A",
"#@	c #558B2D",
"$@	c #4C7823",
"%@	c #426A23",
"&@	c #426A21",
"*@	c #3F671E",
"=@	c #40661D",
"-@	c #3E661D",
";@	c #548728",
">@	c #538627",
",@	c #4C7526",
"'@	c #4B7126",
")@	c #3E631D",
"!@	c #416922",
"~@	c #4B7425",
"{@	c #578928",
"]@	c #537D27",
"^@	c #537E25",
"/@	c #4D7A29",
"(@	c #4B7A29",
"_@	c #55882C",
":@	c #3F6921",
"<@	c #4E7F26",
"[@	c #4D7E25",
"}@	c #5E8B30",
"|@	c #5E8B2E",
"1@	c #5A8C2B",
"2@	c #528828",
"3@	c #456D24",
"4@	c #5A892D",
"5@	c #5A892B",
"6@	c #3E6320",
"7@	c #4B7C23",
"8@	c #5F8C31",
"9@	c #3F6421",
"0@	c #486E23",
"a@	c #3E6921",
"b@	c #5B8A2E",
"c@	c #4B7B25",
"d@	c #486E25",
"e@	c #416D20",
"f@	c #416D22",
"g@	c #3F6B20",
"h@	c #3F6A22",
"i@	c #5B8D2C",
"j@	c #508126",
"k@	c #3F621E",
"l@	c #4C7829",
"m@	c #3F631D",
"n@	c #4C7C28",
"o@	c #4B7B27",
"p@	c #507A24",
"q@	c #4F7627",
"r@	c #5B8A2C",
"s@	c #42621F",
"t@	c #4E8029",
"u@	c #4F7F29",
"v@	c #507A26",
"w@	c #426E23",
"x@	c #487123",
"y@	c #497226",
"z@	c #406821",
"A@	c #558227",
"B@	c #52822C",
"C@	c #3D651E",
"D@	c #417020",
"E@	c #406F1F",
"F@	c #406822",
"G@	c #55872E",
"H@	c #436920",
"I@	c #3E611D",
"J@	c #4D8228",
"K@	c #4C8328",
"L@	c #417022",
"M@	c #406F21",
"N@	c #517E29",
"O@	c #497223",
"P@	c #568127",
"Q@	c #598B2C",
"R@	c #588B2C",
"S@	c #56842C",
"T@	c #3F641F",
"U@	c #52842B",
"V@	c #558426",
"W@	c #568527",
"X@	c #538C2D",
"Y@	c #486C22",
"Z@	c #4E7C24",
"`@	c #4E7B26",
" #	c #446A21",
".#	c #59842B",
"+#	c #5A852C",
"@#	c #59842A",
"##	c #4D7A25",
"$#	c #4A7724",
"%#	c #538A2D",
"&#	c #4F7927",
"*#	c #558428",
"=#	c #4F7D25",
"-#	c #4F7C27",
";#	c #57832C",
">#	c #4D7D27",
",#	c #406321",
"'#	c #5F8F2B",
")#	c #446923",
"!#	c #456E22",
"~#	c #598F31",
"{#	c #588E30",
"]#	c #5A912C",
"^#	c #426221",
"/#	c #537F2A",
"(#	c #568E2D",
"_#	c #43621F",
":#	c #54802B",
"<#	c #578D2D",
"[#	c #497224",
"}#	c #436121",
"|#	c #578F2E",
"1#	c #4E7824",
"2#	c #476823",
"3#	c #466722",
"4#	c #5A902E",
"5#	c #578D2F",
"6#	c #4B7D28",
"7#	c #4B7C2A",
"8#	c #4E7927",
"9#	c #4D7A27",
"0#	c #58902D",
"a#	c #3B631D",
"b#	c #578F2A",
"c#	c #58902B",
"d#	c #497923",
"e#	c #497B24",
"f#	c #4A7C25",
"g#	c #4B7523",
"h#	c #578F2C",
"i#	c #3A621C",
"j#	c #487A23",
"k#	c #487226",
"l#	c #4A7A24",
"m#	c #4C7624",
"n#	c #4B7521",
"        . . . . + @ + + # # # # $ $ $ $ % % & % * * = * - - - - ; ; ; ; > , ' , ) ! ) ) ~ ~ ~ ~ { { { { ] ] ] ] ^ ^ ^ / ( _ ( ( ",
"        . . . . + + + : # < # # $ $ $ $ & % % % * * * * [ - } } ; ; ; ; , , , , ! ) ) ) ~ ~ ~ ~ { { | { ] ] ] 1 / ^ ^ ^ ( ( ( ( ",
"        . . . . 2 2 + + < # # # $ $ $ $ % & & & * * * * } - } - ; ; ; ; ' , > , ) ) ) ) ~ ~ ~ ~ { { { { 1 ] ] ] ^ ^ / ^ ( ( ( ( ",
"        . . . 3 + 2 + + # # # # $ $ $ $ % & % & * = = * - - - - ; ; ; ; 4 5 > , ) ) ) ) ~ ~ ~ ~ { { { { 1 ] ] ] ^ ^ ^ 6 ( ( ( ( ",
"7 8 7 8 9 9 9 9 0 a a a b c d d e e e e f f f f g g g g h h h h i i i i j j j j k k k l m n m m o o o o p q q q r r s r t t t t ",
"8 8 8 8 9 9 9 9 a a 0 a c u c c v e e e f f f f g g g g h h w w x i x i y j j j k k k k m m m m o o o o q q q q r r r r t t t t ",
"8 z 8 z 9 A 9 9 a a a a c c c d e e e e f f f f g B g g h h w h x x x x j j j j k l k k m m m m o o o o q q q q r s s r t t t t ",
"8 8 8 8 9 9 9 9 a a a a c c d d e e e e f f f f g g B B w h h w i i C D j j y j k k k k m m m m o o o o q q p p r r r r t E t t ",
"n F n F G H G G I I I I J J J J K K L L M M N O P Q P P R S S R T T T T U V V V W W W W w w w w X X X X Y Y Z `  . ... .+.+.+.+.",
"n m n m G G G G I I I I J J J J K L K K M M M M Q Q Q P R @.S S T T T = V V V V W W W W w w w w X X X X Y Z Z `  . . . .#.+.+.+.",
"n m n m G G G G I I I I J J J J L L L K N M M M P P P P S S R R $.= T T V V V V W W W W w w w w X X X X %.Z Z Z  . . . .+.+.+.+.",
"&.&.&.&.G H G G I I I *.J J J J L L L L M N M M Q P P P S S R @.T T =.$.V V V V W W W W w w w w X -.X X Y %.Z Y ;. . . .+.+.+.+.",
"j 5 j 5 >.>.>.>.. . . . ,.,.,.,.'.'.).'.!.!.!.!.~.{.].c ^.^.^./.(.(.(.(._._._._.:.:.:.:.<.<.<.<.J J J J [.[.[.[.}.}.|.}.1.1.2.1.",
"5 5 5 5 3.>.>.>.&.. . . ,.,.,.,.'.'.'.'.!.!.!.!.c c {.c ^.^.^.^.(.4.4.4._.5.5._.:.:.:.:.<.<.<.<.J J J J 6.6.6.[.}.}.}.7.1.1.1.1.",
"5 j 5 j >.>.>.>.. . &.. ,.,.,.,.'.'.).'.!.!.!.!.c ~.].~.^.^.^.^.4.4.(.(._._.5._.:.:.:.:.<.<.<.<.J J J J [.[.[.[.}.}.7.}.1.1.2.1.",
"5 5 5 5 >.>.>.>.. . . . ,.8.,.9.'.'.'.'.!.!.!.!.{.{.c {.^.^.^.0.4.(.(.(._._.5._.:.:.:.:.<.<.<.<.J J a.J [.[.[.[.}.|.}.7.2.1.1.1.",
"b.b.b.b.c.c.c.c.d.d.d.( * e.e.e.f.f.f.f.g.h.h.g.i.i.i.i.j.k.k.k.^ ^ ^ ^ l.l.m.l.n.n.n.n.o.p.p.o.q.r.r.r.s.s.s.t.u.n.n.n.v.w.v.w.",
"x.b.x.b.y.c.c.y.d.( d.d.* e.e.* T f.f.f.h.h.h.h.i.i.i.i.j.k.k.k.^ 6 ^ ^ l.m.l.m.n.n.n.n.p.o.z.o.A.q.e.r.s.t.s.s.u.n.n.B.w.C.v.v.",
"b.b.b.b.c.c.c.c.( d.d.( e.* e.* f.f.f.D.h.g.h.h.i.i.i.E.k.k.k.k.^ ^ ^ ^ l.l.m.l.n.F.n.n.p.o.z.o.r.r.r.r.s.t.G.t.n.u.H.u.I.v.v.w.",
"b.J.b.J.c.K.y.c.( d.d.d.e.e.* e.T f.f.f.h.g.h.g.i.E.i.i.k.k.k.k.L.^ ^ ^ l.m.l.l.n.o n.n.z.p.o.; r.r.r.q.s.s.s.t.n.u.n.n.v.v.v.C.",
"M.M.M.M.N.O.O.O.P.P.P.P.Q.Q.Q.Q.R.| R.S.T.T.T.T.].].].].U.U.U.U.V.V.V.V.W.W.W.W.X.X.Y.X.Z.Z.Z.Z.`.`.`.`.: : : :  + +.+ +3.++@+@+",
"M.M.M.M.O.N.N.N.P.P.P.P.Q.Q.Q.Q.#+R.R.R.T.T.$+T.].].].].U.U.U.%+&+V.&+V.*+W.W.W.X.=+=+X.Z.Z.Z.Z.`.`.`.`.: : : :  + + + +3.w.3.3.",
"M.M.M.M.N.O.N.O.M P.P.P.K.-+Q.Q.R.R.R.| T.$+$+T.].].].].;+U.U.U.V.V.V.V.W.W.W.W.X.=+X.X.Z.Z.Z.Z.`.`.`.`.: : : : .+ + +.+3.3.3.3.",
"M.M.M.M.O.N.>+O.P.P.P.P.Q.Q.Q.Q.R.R.R.R.$+T.$+T.].].].].%+U.U.;+&+V.,+V.W.W.W.W.X.X.X.X.Z.'+Z.Z.`.`.`.`.+ : : :  + + + +@+@+3.3.",
")+)+)+)+!+!+!+!+~+z ~+~+{+{+{+1 ]+]+]+]+^+^+^+^+A./+A.A.(+(+(+(+p.o.p.p._+_+_+_+:+:+:+:+<+<+<+[+G G G G }+}+}+}+|+|+|+|+4.4.1+4.",
")+)+)+)+!+!+!+!+~+~+~+~+1 1 {+{+]+]+]+]+^+^+^+^+/+A.A./+(+(+(+(+p.o.p.p._+_+_+_+:+:+:+:+<+<+[+<+G G G G }+}+}+}+|+|+|+|+4.4.4.4.",
")+)+)+)+!+!+!+!+~+~+~+~+{+{+{+{+]+]+]+]+^+^+^+^+A./+A.A.2+(+(+(+o.p.p.o._+3+_+_+:+4+4+:+<+[+[+[+G G G G }+}+5+}+|+|+|+|+W.4.1+1+",
")+)+)+)+!+$+!+!+~+~+~+~+{+{+1 {+]+]+]+6+^+^+^+^+A./+A.A.2+(+2+(+7+o.; o._+_+_+_+:+:+:+:+<+<+[+<+G G G G }+}+}+}+|+|+|+|+4.4.8+4.",
"9+9+9+9+0+0+0+0+a+a+N.a+b+c+b+b+K K K K d+e+/ e+f+g+g+g+V.V.,+,+h+i+h+h+j+j+j+j+k+k+k+k+l+l+m+l+n+o+o+n+p+p+p+p+q+q+q+q+r+s+r+r+",
"k.k.k.k.0+t+0+0+a+a+a+a+c+b+b+b+K K K K d+e+e+d+f+g+g+g+V.V.V.V.h+i+h+h+j+j+j+j+k+k+k+k+l+l+l+l+n+n+n+n+p+p+p+p+q+q+q+q+u+s+r+s+",
"9+9+9+9+0+t+0+0+a+a+a+a+b+b+b+b+v+K K K e+e+e+d+w+g+g+g+V.V.,+,+i+h+h+h+j+j+j+j+x+k+t.k+l+l+m+l+n+o+o+n+p+y+p+p+q+q+q+q+s+r+r+s+",
"9+9+9+9+0+t+0+0+a+a+N.a+b+b+b+b+K K K v+e+d+d+d+z+f+g+z+,+V.V.V.h+h+h+h+j+j+j+j+k+t.t.t.l+l+m+m+o+o+o+o+p+p+p+p+q+q+q+q+r+s+u+s+",
" . . . .A+A+A+A+B+B+B+B+C+D+C+D+q.r.r.r.E+E+F+F+G+H+H+H+I+~ I+I+}+}+5+5+J+J+J+J+K+L+K+L+n.n.n.n.C+C+, , M+M+K M+N+N+N+N+O+m.O+O+",
"_. ._. .A+A+P+P+B+B+B+B+D+D+C+D+r.r.r.q.F+Q+F+F+H+G+H+H+I+I+I+~ R+5+}+5+J+J+J+J+K+K+L+K+n.n.n.n.5 5 5 C+S+T+M+M+N+N+N+N+m.O+O+O+",
"_._._._.A+A+P+A+B+B+B+B+C+C+C+C+r.r.r.r.F+F+F+E+H+H+H+H+I+I+I+I+U+}+}+}+J+J+J+J+L+L+q K+n.n.n.n.5 C+, C+M+T+M+M+N+N+N+N+O+V+O+O+",
"_._._._.A+P+P+P+B+B+B+B+C+D+D+D+q.q.r.r.F+F+F+F+H+H+H+H+I+I+I+I+5+}+5+5+J+J+J+J+K+K+K+L+n.n.n.n.' C+C+C+M+M+M+M+N+N+N+N+O+O+O+O+",
"W+W+W+W+X+X+X+X+Y+Y+Y+Y+Z+q.q.q.`+`+`+ @e+e+e+.@+@+@+@@@#@#@#@S.$@$@$@$@%@&@&@&@t+t+t+t+S+K S+K *@=@-@-@;@;@>@;@k+x+k+k+,@,@,@,@",
"W+'@W+'@X+X+X+X+Y+Y+Y+Y+q.q.Z+q. @`+ @ @e+e+.@e++@@@+@+@#@#@S.#@$@$@$@$@&@%@&@&@t+t+t+t+K K K K *@-@*@-@>@;@;@;@x+k+k+k+,@,@,@,@",
"v '@v '@X+X+X+X+Y+)@Y+Y+q.q.q.q.`+ @`+ @.@.@e+.@+@+@+@+@#@#@S.#@$@$@$@$@&@&@&@%@t+t+t+t+K K K |+*@*@-@-@;@;@;@;@k+x+k+k+,@,@,@,@",
"'@'@'@'@X+X+X+X+Y+Y+Y+Y+q.q.Z+q. @ @ @`+e+e+.@.@+@@@+@+@#@S.#@#@$@$@$@$@&@!@%@&@t+t+t+t+S+K K K -@-@*@=@;@;@;@>@k+k+k+k+,@,@,@~@",
"{@{@{@{@]@]@]@^@/@/@(@/@_@g.g.D+:@:@:@:@&+&+&+&+<@<@<@[@}@}@}@|@1@1@1@1@2@2@2@2@h+h+3@h+4@5@4@4@,.,.,.,.6@6@6@6@.+ + +7@( ( ( ( ",
"{@{@{@{@]@]@]@]@/@/@/@(@g.g.g.g.:@:@:@:@&+&+&+&+<@<@<@<@}@8@}@}@1@1@1@1@2@2@2@2@h+h+h+h+4@4@4@4@,.,.,.,.6@6@9@9@7@ +7@ +( 0@( ( ",
"{@{@{@{@]@]@]@]@(@/@(@/@g.g.g.g.:@a@:@a@&+&+&+&+<@<@<@<@}@}@}@|@1@1@1@1@2@2@2@2@h+h+3@h+4@5@b@4@,.,.,.,.9@9@].9@7@7@7@7@( 0@( ( ",
"{@{@{@{@^@]@]@]@/@/@/@/@g.g.g.g.:@:@a@:@&+&+&+&+<@<@<@<@8@}@}@}@1@1@1@e.2@2@2@2@h+h+h+h+5@4@4@4@,.,.,.,.9@6@6@6@ +c@7@ +0@( ( d@",
"e@f@e@f@g@h@g@g@i@1@i@i@j@j@j@j@k@M+M+M+( ( ( ( 5@5@5@5@I.I.I.I.l@C.l@l@m@k@k@T+n@o@o@o@(.(.(.(.I I I I g g g B p@p@p@p@q@q@q@q@",
"e@e@e@e@g@g@g@g@i@i@i@i@j@j@j@j@M+M+M+M+( ( ( ( 5@5@5@r@I.I.I.C.C.C.C.C.s@T+T+T+o@o@o@n@(.(.(.(.I I I I g g t@g p@p@p@p@q@q@q@q@",
"e@e@e@e@g@g@g@g@1@i@i@i@j@j@j@j@k@M+k@M+( d.0@( 5@5@5@5@I.I.I.I.l@l@C.C.k@T+T+T+o@o@n@o@(.(.(.(.I I I I B u@B g v@p@p@p@q@q@q@q@",
"e@w@e@w@g@h@g@g@i@i@i@i@j@j@j@j@M+M+M+k@( ( ( ( 5@5@5@5@I.I.I.I.l@l@C.C.M+T+m@T+n@o@o@o@(.(.(.(.I I I I B g g g p@p@p@p@q@q@q@q@",
"++++++++k+k+x@y@!@z@!@z@%+;+U.;+n@n@n@n@A@A@A@A@B@B@B@B@C@} } } D@E@D@D@a+a+a+a+F@F@F@F@G@G@G@_@+.+.+.+.H@4.4.H@I@I@I@k@J@K@K@J@",
"++z ++z k+x@x@k+z@z@!@!@%+;+;+;+n@n@A+n@A@A@A@A@B@B@B@B@} } C@} L@M@D@D@a+a+a+a+F@F@F@F@_@G@G@G@N@+.+.+.H@4.4.H@k@I@I@I@K@K@K@J@",
"++++++++k+k+k+y@z@z@z@!@;+%+;+;+n@n@n@n@A@A@A@A@B@B@B@B@} } } } D@D@D@D@a+O@a+a+F@F@F@F@_@G@G@_@+.+.+.+.H@H@4.H@k@k@I@].K@J@K@K@",
"z z z z y@k+k+k+z@z@z@z@U.;+U.;+n@n@n@n@A@A@A@P@B@B@B@B@C@} } } D@E@D@E@a+a+a+a+F@F@F@F@G@G@_@_@+.+.+.+.H@H@H@4.I@I@k@I@;+K@K@;+",
"Q@R@Q@R@S@9.9.S@Y+T@Y+Y+U@) ) ) V@W@V@V@X@X@X@X@Y@Y@Y@Y@5 5 5 5  +Z@Z@`@ # # # #.#+#.#@#######c@$#$#$#$#%#%#%#%#8+z@z@8+&#&#&#&#",
"R@R@R@R@9.S@S@9.T@Y+Y+Y+) U@) U@V@W@*#V@X@X@X@X@Y@Y@Y@Y@5 5 5 5 =#Z@-#`@ # #H@ #.#.#.#+#########$#$#$#$#%#%#%#%#z@!@z@!@&#&#&#&#",
"R@R@R@R@9.9.9.;#Y+T@Y+Y+) ) U@U@V@V@W@W@X@X@X@X@Y@Y@Y@Y@5 5 5 S.>#=#[@Z@H@ # # #.#.#.#.#########$#$#++$#%#%#%#%#z@z@z@z@&#&#&#&#",
"R@R@R@R@9.S@9.9.Y+T@Y+T@U@) U@U@W@V@W@W@X@X@X@X@Y@Y@Y@( 5 S.5 5 -#[@=#Z@ #H@H@H@.#+#.#.#########$#$#$#$#%#%#%#%#8+z@!@z@&#&#&#&#",
",#M+,#M+'#'#'#'#)#)#)#)#!#_ !#!#W.*+W.W.c@c@c@c@~#~#{#~#]#]#]#]#m+m+m+m+3 3 3 3 s@s@^#^#/#/#/#/#D@L@L@D@* = = * %#%#%#%#(#(#(#(#",
"M+,#M+,#'#'#'#'#)#)#)#)#!#_ !#!#W.W.W.W.c@c@c@c@~#~#~#~#]#]#]#]#m+m+m+m+3 3 3 3 s@_#s@^#:#/#/#/#D@D@L@L@R@Q@* = %#%#%#%#(#(#<#(#",
"M+k@M+k@'#'#'#'#)#)#)#)#!#_ !#!#W.W.W.1.c@o@c@c@~#~#~#~#]#]#]#]#m+m+m+m+3 3 [#[#s@s@s@_#/#/#/#/#D@D@D@D@= = * = %#%#%#%#(#(#(#(#",
",#M+,#M+'#'#'#'#)#)#)#)#_ !#!#!#W.W.W.W.o@c@o@c@~#~#~#{#]#]#]#]#m+m+m+m+3 3 3 3 s@^#}#s@/#/#/#/#D@D@D@D@= * = * %#%#%#%#(#(#|#(#",
"B.B.B.B.1#1#1#1#k.&.k.&.2#3#3#2#X X 4#X y+y+5#y+6#7#6#6#8#9#8#D 0#0#0#0#a#a#a#a#s s s s b#b#c#b#d#e#e#d#e#f#f#e#g#g#g#g#y@[#[#[#",
"B.B.B.B.1#1#1#1#k.k.&.k.2#2#2#2#4#4#X X y+5#y+y+6#6#6#6#D 8#8#9#0#0#h#0#a#a#i#a#s s s s b#c#b#b#d#e#e#j#f#e#f#e#g#g#g#g#k#y@y@[#",
"B.B.B.B.x 1#x x k.k.k.k.2#2#2#2#4#X X X y+5#y+y+6#6#6#6#8#9#8#8#0#0#0#0#a#a#a#a#s s s s b#c#b#b#j#d#d#l#e#f#f#e#g#g#g#g#y@[#[#y@",
"B.B.B.B.1#1#1#1#k.&.k.&.2#2#2#2#X X X X 5#5#y+y+6#6#6#6#8#8###I.0#0#0#0#a#a#a#a#s s s s b#b#b#b#l#l#e#d#e#f#f#f#g#m#n#g#[#y@[#[#"};
