/* XPM */
static char * ground_xpm[] = {
"64 64 2 1",
" 	c #02A62E",
".	c #028F2E",
"                                                                ",
"                                                                ",
"..           ...                                                ",
"..           ...                       ...           ...        ",
"..           ...          ...          ...           ...        ",
"                          ...          ...           ...        ",
"                          ...                                   ",
"                                                                ",
"                                                                ",
"                  ...                                           ",
"                  ...                                     ...   ",
"                  ...       ...     ...                   ...   ",
"   ...                      ...     ...                   ...   ",
"   ...                      ...     ...    ...                  ",
"   ...                                     ...                  ",
"                                           ...                  ",
"                                                                ",
"                                                                ",
"                                                                ",
"                                      ...                       ",
"                                      ...                       ",
"             ...                      ...                       ",
"             ...                                     ...        ",
"             ...                                     ...        ",
"                       ...                           ...        ",
"                       ...                                     .",
"                       ...                                     .",
"        ...                       ...                          .",
"        ...                       ...           ...             ",
".       ...                       ...           ...             ",
".                                     ...       ...             ",
".                                     ...                       ",
"                                      ...                       ",
"                                                                ",
"                     ...                                        ",
"                     ...                                     ...",
"   ...               ...                                     ...",
"   ...                       ...           ...               ...",
"   ...                       ...           ...                  ",
"                             ...           ...                  ",
"                                                                ",
"         ...                                                    ",
"         ...           ...                       ...            ",
"         ...           ...                       ...           .",
"         ...           ...                       ...           .",
"          .             .                        ...           .",
"                                                  .             ",
"                                                                ",
"                                                                ",
"                                                                ",
"                                                                ",
"                                             ...           ...  ",
"   ...           ...                         ...           ...  ",
"   ...           ...                         ...           ...  ",
"   ...           ...          ...                               ",
"                              ...                               ",
"                              ...                               ",
"                                                                ",
"                                                                ",
"                      ...                                       ",
"                      ...                                       ",
"                      ...       ...     ...      ...            ",
"       ...                      ...     ...      ...            ",
"       ...                      ...     ...      ...            "};
