/* XPM */
static char * move_down_xpm[] = {
"64 64 3 1",
" 	c #000000",
".	c #3F80EA",
"+	c #7AA7F0",
"                                                                ",
"                                                                ",
"                                                                ",
"                                                                ",
"                        ................                        ",
"                        ................                        ",
"                        ................                        ",
"                        ................                        ",
"                        ....++++++++....                        ",
"                        ....++++++++....                        ",
"                        ....++++++++....                        ",
"                        ....++++++++....                        ",
"                        ....++++++++....                        ",
"                        ....++++++++....                        ",
"                        ....++++++++....                        ",
"                        ....++++++++....                        ",
"                        ....++++++++....                        ",
"                        ....++++++++....                        ",
"                        ....++++++++....                        ",
"                        ....++++++++....                        ",
"                        ....++++++++....                        ",
"                        ....++++++++....                        ",
"                        ....++++++++....                        ",
"                        ....++++++++....                        ",
"                        ....++++++++....                        ",
"                        ....++++++++....                        ",
"                        ....++++++++....                        ",
"                        ....++++++++....                        ",
"        ....................++++++++....................        ",
"        ....................++++++++....................        ",
"        ....................++++++++....................        ",
"        ....................++++++++....................        ",
"        ........++++++++++++++++++++++++++++++++........        ",
"        ........++++++++++++++++++++++++++++++++........        ",
"        ........++++++++++++++++++++++++++++++++........        ",
"        ........++++++++++++++++++++++++++++++++........        ",
"            ....++++++++++++++++++++++++++++++++....            ",
"            ....++++++++++++++++++++++++++++++++....            ",
"            ....++++++++++++++++++++++++++++++++....            ",
"            ....++++++++++++++++++++++++++++++++....            ",
"            ........++++++++++++++++++++++++........            ",
"            ........++++++++++++++++++++++++........            ",
"            ........++++++++++++++++++++++++........            ",
"            ........++++++++++++++++++++++++........            ",
"                ........++++++++++++++++........                ",
"                ........++++++++++++++++........                ",
"                ........++++++++++++++++........                ",
"                ........++++++++++++++++........                ",
"                    ........++++++++........                    ",
"                    ........++++++++........                    ",
"                    ........++++++++........                    ",
"                    ........++++++++........                    ",
"                        ................                        ",
"                        ................                        ",
"                        ................                        ",
"                        ................                        ",
"                            ........                            ",
"                            ........                            ",
"                            ........                            ",
"                            ........                            ",
"                                                                ",
"                                                                ",
"                                                                ",
"                                                                "};
