/* XPM */
static char * move_right_xpm[] = {
"64 64 3 1",
" 	c #000000",
".	c #40C54E",
"+	c #7AF084",
"                                                                ",
"                                                                ",
"                                                                ",
"                                                                ",
"                                                                ",
"                                                                ",
"                                                                ",
"                                                                ",
"                            ........                            ",
"                            ........                            ",
"                            ........                            ",
"                            ........                            ",
"                            ................                    ",
"                            ................                    ",
"                            ................                    ",
"                            ................                    ",
"                            ....++++++++........                ",
"                            ....++++++++........                ",
"                            ....++++++++........                ",
"                            ....++++++++........                ",
"                            ....++++++++++++........            ",
"                            ....++++++++++++........            ",
"                            ....++++++++++++........            ",
"                            ....++++++++++++........            ",
"    ............................++++++++++++++++........        ",
"    ............................++++++++++++++++........        ",
"    ............................++++++++++++++++........        ",
"    ............................++++++++++++++++........        ",
"    ....++++++++++++++++++++++++++++++++++++++++++++........    ",
"    ....++++++++++++++++++++++++++++++++++++++++++++........    ",
"    ....++++++++++++++++++++++++++++++++++++++++++++........    ",
"    ....++++++++++++++++++++++++++++++++++++++++++++........    ",
"    ....++++++++++++++++++++++++++++++++++++++++++++........    ",
"    ....++++++++++++++++++++++++++++++++++++++++++++........    ",
"    ....++++++++++++++++++++++++++++++++++++++++++++........    ",
"    ....++++++++++++++++++++++++++++++++++++++++++++........    ",
"    ............................++++++++++++++++........        ",
"    ............................++++++++++++++++........        ",
"    ............................++++++++++++++++........        ",
"    ............................++++++++++++++++........        ",
"                            ....++++++++++++........            ",
"                            ....++++++++++++........            ",
"                            ....++++++++++++........            ",
"                            ....++++++++++++........            ",
"                            ....++++++++........                ",
"                            ....++++++++........                ",
"                            ....++++++++........                ",
"                            ....++++++++........                ",
"                            ................                    ",
"                            ................                    ",
"                            ................                    ",
"                            ................                    ",
"                            ........                            ",
"                            ........                            ",
"                            ........                            ",
"                            ........                            ",
"                                                                ",
"                                                                ",
"                                                                ",
"                                                                ",
"                                                                ",
"                                                                ",
"                                                                ",
"                                                                "};
