/* XPM */
static char * left_xpm[] = {
"64 64 2 1",
" 	c #000000",
".	c #FFFF00",
"                                                                ",
"                                                                ",
"                                                                ",
"                                                                ",
"                                                                ",
"                                                                ",
"                              .....                             ",
"                             .......                            ",
"                            ........                            ",
"                           .........                            ",
"                          ..........                            ",
"                         ...........                            ",
"                        ............                            ",
"                        ...........                             ",
"                       ...........                              ",
"                      ...........                               ",
"                     ...........                                ",
"                    ...........                                 ",
"                   ...........                                  ",
"                  ...........                                   ",
"                 ...........                                    ",
"                ...........                                     ",
"               ...........                                      ",
"              ...........                                       ",
"            ............                                        ",
"           .............                                        ",
"          .............................                         ",
"        .................................................       ",
"       .....................................................    ",
"       ......................................................   ",
"       ......................................................   ",
"       ......................................................   ",
"       ......................................................   ",
"       ...................        ...........................   ",
"        ..............                               .......    ",
"        ................                                        ",
"         ................                                       ",
"            ..............                                      ",
"             ..............                                     ",
"              ..............                                    ",
"                 ............                                   ",
"                  ............                                  ",
"                   ............                                 ",
"                    ............                                ",
"                     ............                               ",
"                      .............                             ",
"                       ..............                           ",
"                        ..............                          ",
"                         ..............                         ",
"                          .............                         ",
"                            ...........                         ",
"                             ..........                         ",
"                              .........                         ",
"                                .......                         ",
"                                 .....                          ",
"                                                                ",
"                                                                ",
"                                                                ",
"                                                                ",
"                                                                ",
"                                                                ",
"                                                                ",
"                                                                ",
"                                                                "};
