/* XPM */
static char * move_up_xpm[] = {
"64 64 3 1",
" 	c #000000",
".	c #ED4949",
"+	c #F07A7D",
"                                                                ",
"                                                                ",
"                                                                ",
"                                                                ",
"                            ........                            ",
"                            ........                            ",
"                            ........                            ",
"                            ........                            ",
"                        ................                        ",
"                        ................                        ",
"                        ................                        ",
"                        ................                        ",
"                    ........++++++++........                    ",
"                    ........++++++++........                    ",
"                    ........++++++++........                    ",
"                    ........++++++++........                    ",
"                ........++++++++++++++++........                ",
"                ........++++++++++++++++........                ",
"                ........++++++++++++++++........                ",
"                ........++++++++++++++++........                ",
"            ........++++++++++++++++++++++++........            ",
"            ........++++++++++++++++++++++++........            ",
"            ........++++++++++++++++++++++++........            ",
"            ........++++++++++++++++++++++++........            ",
"            ....++++++++++++++++++++++++++++++++....            ",
"            ....++++++++++++++++++++++++++++++++....            ",
"            ....++++++++++++++++++++++++++++++++....            ",
"            ....++++++++++++++++++++++++++++++++....            ",
"        ........++++++++++++++++++++++++++++++++........        ",
"        ........++++++++++++++++++++++++++++++++........        ",
"        ........++++++++++++++++++++++++++++++++........        ",
"        ........++++++++++++++++++++++++++++++++........        ",
"        ....................++++++++....................        ",
"        ....................++++++++....................        ",
"        ....................++++++++....................        ",
"        ....................++++++++....................        ",
"                        ....++++++++....                        ",
"                        ....++++++++....                        ",
"                        ....++++++++....                        ",
"                        ....++++++++....                        ",
"                        ....++++++++....                        ",
"                        ....++++++++....                        ",
"                        ....++++++++....                        ",
"                        ....++++++++....                        ",
"                        ....++++++++....                        ",
"                        ....++++++++....                        ",
"                        ....++++++++....                        ",
"                        ....++++++++....                        ",
"                        ....++++++++....                        ",
"                        ....++++++++....                        ",
"                        ....++++++++....                        ",
"                        ....++++++++....                        ",
"                        ....++++++++....                        ",
"                        ....++++++++....                        ",
"                        ....++++++++....                        ",
"                        ....++++++++....                        ",
"                        ................                        ",
"                        ................                        ",
"                        ................                        ",
"                        ................                        ",
"                                                                ",
"                                                                ",
"                                                                ",
"                                                                "};
