/* XPM */
static char * move_left_xpm[] = {
"64 64 3 1",
" 	c #000000",
".	c #E9CE59",
"+	c #E8F07A",
"                                                                ",
"                                                                ",
"                                                                ",
"                                                                ",
"                                                                ",
"                                                                ",
"                                                                ",
"                                                                ",
"                            ........                            ",
"                            ........                            ",
"                            ........                            ",
"                            ........                            ",
"                    ................                            ",
"                    ................                            ",
"                    ................                            ",
"                    ................                            ",
"                ........++++++++....                            ",
"                ........++++++++....                            ",
"                ........++++++++....                            ",
"                ........++++++++....                            ",
"            ........++++++++++++....                            ",
"            ........++++++++++++....                            ",
"            ........++++++++++++....                            ",
"            ........++++++++++++....                            ",
"        ........++++++++++++++++............................    ",
"        ........++++++++++++++++............................    ",
"        ........++++++++++++++++............................    ",
"        ........++++++++++++++++............................    ",
"    ........++++++++++++++++++++++++++++++++++++++++++++....    ",
"    ........++++++++++++++++++++++++++++++++++++++++++++....    ",
"    ........++++++++++++++++++++++++++++++++++++++++++++....    ",
"    ........++++++++++++++++++++++++++++++++++++++++++++....    ",
"    ........++++++++++++++++++++++++++++++++++++++++++++....    ",
"    ........++++++++++++++++++++++++++++++++++++++++++++....    ",
"    ........++++++++++++++++++++++++++++++++++++++++++++....    ",
"    ........++++++++++++++++++++++++++++++++++++++++++++....    ",
"        ........++++++++++++++++............................    ",
"        ........++++++++++++++++............................    ",
"        ........++++++++++++++++............................    ",
"        ........++++++++++++++++............................    ",
"            ........++++++++++++....                            ",
"            ........++++++++++++....                            ",
"            ........++++++++++++....                            ",
"            ........++++++++++++....                            ",
"                ........++++++++....                            ",
"                ........++++++++....                            ",
"                ........++++++++....                            ",
"                ........++++++++....                            ",
"                    ................                            ",
"                    ................                            ",
"                    ................                            ",
"                    ................                            ",
"                            ........                            ",
"                            ........                            ",
"                            ........                            ",
"                            ........                            ",
"                                                                ",
"                                                                ",
"                                                                ",
"                                                                ",
"                                                                ",
"                                                                ",
"                                                                ",
"                                                                "};
