/* XPM */
static char * paws_xpm[] = {
"64 64 3 1",
" 	c #000000",
".	c #E5E5E5",
"+	c #F6B5F9",
"                                                                ",
"                                                                ",
"                                                                ",
"                                                                ",
"                                    ..............              ",
"                                    ..............              ",
"                                  ..++++......++++..            ",
"                                  ..++++......++++..            ",
"                                ..++++++++..++++++++..          ",
"                                ..++++++++..++++++++..          ",
"                            ......++++++++..++++++++......      ",
"                            ......++++++++..++++++++......      ",
"                          ..++++....++++++..++++++....++++..    ",
"                          ..++++....++++++..++++++....++++..    ",
"                          ..++++++..++++......++++..++++++..    ",
"                          ..++++++..++++......++++..++++++..    ",
"                          ..++++++......++++++......++++++..    ",
"                          ..++++++......++++++......++++++..    ",
"                          ....++++..++++++++++++++..++++....    ",
"                          ....++++..++++++++++++++..++++....    ",
"                            ......++++++++++++++++++......      ",
"                            ......++++++++++++++++++......      ",
"                              ....++++++++++++++++++....        ",
"                              ....++++++++++++++++++....        ",
"                              ..++++++++++++++++++++++..        ",
"                              ..++++++++++++++++++++++..        ",
"                              ..++++++++++++++++++++++..        ",
"                              ..++++++++++++++++++++++..        ",
"                                ..++++++......++++++..          ",
"                                ..++++++......++++++..          ",
"                                  ......      ......            ",
"                                  ......      ......            ",
"              ..............                                    ",
"              ..............                                    ",
"            ..++++......++++..                                  ",
"            ..++++......++++..                                  ",
"          ..++++++++..++++++++..                                ",
"          ..++++++++..++++++++..                                ",
"      ......++++++++..++++++++......                            ",
"      ......++++++++..++++++++......                            ",
"    ..++++....++++++..++++++....++++..                          ",
"    ..++++....++++++..++++++....++++..                          ",
"    ..++++++..++++......++++..++++++..                          ",
"    ..++++++..++++......++++..++++++..                          ",
"    ..++++++......++++++......++++++..                          ",
"    ..++++++......++++++......++++++..                          ",
"    ....++++..++++++++++++++..++++....                          ",
"    ....++++..++++++++++++++..++++....                          ",
"      ......++++++++++++++++++......                            ",
"      ......++++++++++++++++++......                            ",
"        ....++++++++++++++++++....                              ",
"        ....++++++++++++++++++....                              ",
"        ..++++++++++++++++++++++..                              ",
"        ..++++++++++++++++++++++..                              ",
"        ..++++++++++++++++++++++..                              ",
"        ..++++++++++++++++++++++..                              ",
"          ..++++++......++++++..                                ",
"          ..++++++......++++++..                                ",
"            ......      ......                                  ",
"            ......      ......                                  ",
"                                                                ",
"                                                                ",
"                                                                ",
"                                                                "};
