/* XPM */
static char * popcorn2_xpm[] = {
"64 64 171 2",
"  	c #000000",
". 	c #F0C871",
"+ 	c #F4C46F",
"@ 	c #F1C771",
"# 	c #FBE99F",
"$ 	c #EBC773",
"% 	c #F5C970",
"& 	c #EAC773",
"* 	c #FBE99D",
"= 	c #FCEB9D",
"- 	c #E8D1A5",
"; 	c #F9E8A0",
"> 	c #FCEAA0",
", 	c #FBE7A0",
"' 	c #FAE99B",
") 	c #FBEA9C",
"! 	c #EEC877",
"~ 	c #F4C671",
"{ 	c #F4C678",
"] 	c #F6ECA7",
"^ 	c #F8EA9F",
"/ 	c #FCE89F",
"( 	c #FAEA9F",
"_ 	c #FAE9A3",
": 	c #FBEAA4",
"< 	c #FBE8A3",
"[ 	c #FBEC9B",
"} 	c #EDC870",
"| 	c #EACEA7",
"1 	c #FAE7A3",
"2 	c #F3EAE3",
"3 	c #F3EBDE",
"4 	c #F5C475",
"5 	c #F2ECE0",
"6 	c #FEE89D",
"7 	c #EED2AB",
"8 	c #E6CFA5",
"9 	c #E9D2A8",
"0 	c #F9E6A4",
"a 	c #FDEBA3",
"b 	c #F5ECE5",
"c 	c #EBC66E",
"d 	c #F3C671",
"e 	c #F3EDDF",
"f 	c #E9CDA6",
"g 	c #F4ECDF",
"h 	c #F4EDE3",
"i 	c #F3EDE1",
"j 	c #ECD0A9",
"k 	c #F5EBE2",
"l 	c #F1ECD6",
"m 	c #F2ECDE",
"n 	c #F2EBE3",
"o 	c #F4EBE4",
"p 	c #F3ECE4",
"q 	c #F6EDDE",
"r 	c #F4EEDE",
"s 	c #FFE7A1",
"t 	c #FCE99C",
"u 	c #F3ECE2",
"v 	c #FAE89C",
"w 	c #E6D8B5",
"x 	c #E7D8B7",
"y 	c #EED390",
"z 	c #ECD390",
"A 	c #ECD48E",
"B 	c #EBCD84",
"C 	c #E8D19F",
"D 	c #F4EEE2",
"E 	c #F2D380",
"F 	c #EDD17E",
"G 	c #F8E390",
"H 	c #FCE190",
"I 	c #F6EBB3",
"J 	c #FBE7B2",
"K 	c #F6E3C2",
"L 	c #F5E2C4",
"M 	c #F4E0BD",
"N 	c #EBCFA8",
"O 	c #E5D3A5",
"P 	c #ECD1A6",
"Q 	c #F0C777",
"R 	c #F8EAE1",
"S 	c #E9D2A6",
"T 	c #E6D4A6",
"U 	c #F1C677",
"V 	c #FAE89E",
"W 	c #FFE89C",
"X 	c #EFC76F",
"Y 	c #F1C971",
"Z 	c #EFEDDE",
"` 	c #F0C775",
" .	c #F4EDE7",
"..	c #F0C670",
"+.	c #EFC770",
"@.	c #F9EA97",
"#.	c #F8E996",
"$.	c #F6EADE",
"%.	c #F5EAD8",
"&.	c #F5E9DD",
"*.	c #F0CC7E",
"=.	c #EECA76",
"-.	c #F1CB80",
";.	c #EFCA7A",
">.	c #F3C76E",
",.	c #EFECDD",
"'.	c #F2EBD9",
").	c #F2EBD8",
"!.	c #F1EAD8",
"~.	c #F1C972",
"{.	c #F8EAE7",
"].	c #F0C870",
"^.	c #F3C770",
"/.	c #F0EDDE",
"(.	c #F7EAE4",
"_.	c #F4ECE1",
":.	c #CE3722",
"<.	c #CD3623",
"[.	c #FEFEFF",
"}.	c #CF3825",
"|.	c #F9FFFF",
"1.	c #FFFBFF",
"2.	c #F9FEF7",
"3.	c #C43A13",
"4.	c #FFFFFF",
"5.	c #FEFEFE",
"6.	c #FFFDFD",
"7.	c #DA3521",
"8.	c #CF3624",
"9.	c #CE3523",
"0.	c #FFFEFF",
"a.	c #CE3724",
"b.	c #FEFEFC",
"c.	c #D23429",
"d.	c #FEFCFF",
"e.	c #D13529",
"f.	c #CE3525",
"g.	c #A12E1C",
"h.	c #9E2E23",
"i.	c #CD3424",
"j.	c #9F2F21",
"k.	c #9F2F24",
"l.	c #9F2F23",
"m.	c #FFFDFF",
"n.	c #A22F1D",
"o.	c #FFFEFC",
"p.	c #D44B39",
"q.	c #DFDFDF",
"r.	c #E0DEDF",
"s.	c #D44B38",
"t.	c #DFDDDE",
"u.	c #A22C22",
"v.	c #CD3726",
"w.	c #D13526",
"x.	c #DFDEDC",
"y.	c #A32D23",
"z.	c #9F2E1E",
"A.	c #A42C1E",
"B.	c #E0E0E0",
"C.	c #DEDEDE",
"D.	c #E0DFDD",
"E.	c #DBDFDE",
"F.	c #D14836",
"G.	c #E9E9E9",
"H.	c #B32F20",
"I.	c #B12D1E",
"J.	c #B43021",
"K.	c #E2DDE3",
"L.	c #D04936",
"M.	c #A12D1E",
"N.	c #E1DCE3",
"                                                                                                                                ",
"                                                                                                                                ",
"                                                                                                                                ",
"                                                                                                                                ",
"                              . . . . . . . . . . . . .       + . . . . . . . . . . . @                                         ",
"                              # # # # # # # # # # # $ . . . . . . . . . # # # # # . . . . . . . . . . . . %                     ",
"                              # # # # # # # # # # # & . . . . . . . . . # # # # # . . . . . . . . . . . . %                     ",
"                              # # # # # # # # # # # & . . . . . . . . . # # # # # . . . . . . . . . . . . %                     ",
"                        * * = - - - - - - - - # # # $ . . . . ; # # # # # # # # # # # # # # # # > . . . . %                     ",
"                        , , ' - - - - - - - - ) ) ) ! ~ { @ @ ] ^ / / # ( / / # ^ _ _ _ : : < < [ ~ } } . %                     ",
"                    | - - - - - - - - - - - - - - - 1 # 2 3 3 4 . . . . . . . . . 3 3 3 3 3 3 3 5 # 6 6 . %                     ",
"                    | - - - - - - - - - - - - - - - 1 # 2 3 3 4 . . . . . . . . . 3 3 3 3 3 3 3 5 # 6 6 . %                     ",
"                    7 - 8 8 9 9 9 9 9 9 9 9 9 - - - 0 a b 3 3 c d d d d d d d . . 3 3 3 3 3 3 3 e # * * . %                     ",
"                    f - 3 3 3 3 g 3 3 3 3 3 g - - - - - h 3 3 3 3 3 3 3 3 3 3 . . 3 3 3 3 3 3 3 i # * * . %                     ",
"                    j - g g 3 3 3 3 3 3 3 3 3 - - - - - k 3 3 l m n n o p e e . . 3 3 q e i i i r s t t . %                     ",
"                    j - g g 3 3 3 3 3 3 3 3 3 - - - - - k 3 3 l m n n o p e e . . 3 3 q e i i i r s t t . %                     ",
"                    | - 3 3 3 3 g 3 3 3 3 3 3 - - - - - u 3 3 v # # # # # # # . . 3 3 3 . . . . . . . . . %                     ",
"                    | - w w x y z A A y z z z B B B C - D 3 3 E F F F F F F F G H I I J K K L L M . . . . %                     ",
"                    N - - - O . . . . . . . . . . . P - u 3 3 Q . . . . . . . # # # # # g 3 3 3 R . . . . %                     ",
"                    N - - - O . . . . . . . . . . . P - u 3 3 Q . . . . . . . # # # # # g 3 3 3 R . . . . %                     ",
"                    f - S S T . . . . . . . . . . . P - u 3 3 U . . . . . . . # # # # V 3 3 3 3 R . . . . %                     ",
"                    W # X X . . . # # # # # # . . . P - < # # Y . Z Z 3 . . . . . . . ` 3 3 3 3 3 3  . .. . . .                 ",
"                        ....+.@.#.$.$.%.&.&.%.. . . *.=.-.;.;.>.. ,.,.3 '.).).!.!.. . ~.3 3 3 3 3 3 {.{.. . . .                 ",
"                        ].].^.# # 3 3 3 3 3 3 . . . . . . . . . . /./.3 g 3 3 3 3 . . . 3 3 3 3 3 3  . .. . . .                 ",
"                        ].].^.# # 3 3 3 3 3 3 . . . . . . . . . . /./.3 g 3 3 3 3 . . . 3 3 3 3 3 3  . .. . . .                 ",
"                        ].].^.# # 3 3 3 3 3 3 . . . . . . . . (._.3 3 3 # V V V # . . . 3 3 3 3 5 # * * . %                     ",
"                        ].].^.# # 3 3 3 3 3 3 . . . . . . . . (.3 3 3 g # # # # # . . ].3 3 3 3 5 # 6 6 . %                     ",
"                              :.:.<.<.[.[.[.[.}.}.}.}.}.|.1.1.2.[.3.3.<.:.:.:.4.5.1.1.6.<.<.<.<.7.                              ",
"                              :.:.<.<.[.[.[.[.}.}.}.}.}.|.1.1.2.[.3.3.<.:.:.:.4.5.1.1.6.<.<.<.<.7.                              ",
"                              8.8.8.8.5.5.5.4.9.8.8.8.8.0.5.5.5.5.a.a.8.8.8.8.5.5.4.4.b.8.8.8.8.c.                              ",
"                              8.8.8.8.5.5.5.5.9.8.8.8.8.d.5.5.5.5.a.a.8.8.8.8.5.5.5.5.b.8.8.8.8.c.                              ",
"                              8.8.8.8.5.5.5.5.9.8.8.8.8.0.5.5.5.5.a.a.8.8.8.8.5.5.5.5.b.8.8.a.a.e.                              ",
"                              8.8.8.8.5.5.5.5.9.8.8.8.8.0.5.5.5.5.a.a.8.8.8.8.5.5.5.5.b.8.8.a.a.e.                              ",
"                              8.8.8.8.5.5.5.5.9.8.8.8.8.d.5.5.5.5.9.9.8.8.8.8.5.5.5.5.b.8.f.g.g.h.                              ",
"                              8.8.8.8.5.5.5.5.9.8.8.8.8.0.5.5.5.5.a.a.8.8.8.8.5.5.5.5.b.8.i.g.g.j.                              ",
"                              8.8.8.8.5.5.5.5.9.8.8.8.8.0.5.5.5.5.a.a.8.8.8.8.5.5.5.5.b.8.f.g.g.k.                              ",
"                              8.8.8.8.5.5.5.5.9.8.8.8.8.0.5.5.5.5.a.a.8.8.8.8.5.5.5.5.b.8.f.g.g.l.                              ",
"                              8.8.8.8.5.5.5.5.9.8.8.8.8.0.5.5.5.5.a.a.8.8.8.8.5.5.5.5.b.8.f.g.g.l.                              ",
"                              8.8.8.8.5.5.5.5.9.8.8.8.8.d.5.5.5.5.a.a.8.8.8.8.5.5.4.4.m.n.g.n.n.l.                              ",
"                              8.8.8.8.5.5.5.5.9.8.8.8.8.0.5.5.5.5.<.<.8.8.8.8.5.5.5.5.o.n.g.n.n.l.                              ",
"                              8.8.8.8.8.p.p.5.9.8.8.8.8.0.5.5.5.5.<.<.8.8.8.8.5.5.q.q.r.g.g.n.n.j.                              ",
"                              8.8.8.8.8.p.p.5.9.8.8.8.8.0.5.5.5.5.<.<.8.8.8.8.5.5.q.q.r.g.g.n.n.j.                              ",
"                                  8.8.8.s.s.5.9.8.8.8.8.0.5.5.5.5.8.8.8.g.g.g.q.q.q.q.t.g.u.                                    ",
"                                  8.8.8.s.s.5.9.8.8.8.8.0.5.5.5.4.v.v.w.g.g.g.q.q.q.q.x.g.y.                                    ",
"                                  8.8.8.s.s.5.9.8.8.8.8.0.5.5.5.4.v.v.w.g.g.g.q.q.q.q.x.g.y.                                    ",
"                                  8.8.8.s.s.5.9.8.8.8.8.0.5.5.q.q.z.z.g.n.g.g.q.q.q.q.r.n.y.                                    ",
"                                  8.8.8.s.s.5.9.8.8.8.8.d.5.5.q.q.A.A.g.n.n.n.q.q.q.q.r.g.y.                                    ",
"                                  8.8.8.p.p.5.9.8.8.8.8.0.5.5.B.q.A.A.g.n.g.g.q.q.q.q.t.g.y.                                    ",
"                                  8.8.8.s.s.5.9.8.8.8.8.0.5.5.C.q.z.z.g.n.g.g.q.q.q.q.D.n.u.                                    ",
"                                  8.8.8.s.s.5.9.8.8.8.8.0.5.5.C.q.z.z.g.n.g.g.q.q.q.q.D.n.u.                                    ",
"                                  8.8.8.s.s.5.9.8.8.8.8.E.q.q.q.q.z.z.g.n.n.n.q.q.q.q.t.n.u.                                    ",
"                                  8.8.8.F.F.G.H.I.I.J.J.K.q.q.q.q.A.A.g.n.n.n.q.q.q.q.r.g.u.                                    ",
"                                  8.8.8.L.L.q.g.M.M.n.g.N.q.q.q.q.z.z.g.n.g.g.q.q.q.q.r.n.y.                                    ",
"                                  8.8.8.L.L.q.g.M.M.n.g.N.q.q.q.q.z.z.g.n.g.g.q.q.q.q.r.n.y.                                    ",
"                                                                                                                                ",
"                                                                                                                                ",
"                                                                                                                                ",
"                                                                                                                                ",
"                                                                                                                                ",
"                                                                                                                                ",
"                                                                                                                                ",
"                                                                                                                                ",
"                                                                                                                                ",
"                                                                                                                                "};
