/* XPM */
static char * popcorn_xpm[] = {
"64 64 7 1",
" 	c #000000",
".	c #E8BF46",
"+	c #F0CF6F",
"@	c #B70000",
"#	c #980000",
"$	c #D9D9D9",
"%	c #BFBFBF",
"                                                                ",
"                                                                ",
"                                                                ",
"                                                                ",
"                                                                ",
"                                                                ",
"                                                                ",
"                                                                ",
"                           .++  ... ..                          ",
"                        + ++++++... .....                       ",
"                      +++++++++++..+++...+                      ",
"                    +++++.+.+++++++++++.+++                     ",
"                   .++++++..++++++++++..++++                    ",
"                  +..++.+++.+++.+.++....++..+                   ",
"                 +++++++...++++...+++...+.+..                   ",
"                 ++++++++.++++...+.+.++++.....                  ",
"                 +++++++++++..++++...+++++.+.+                  ",
"                 +.+++.++.+...++++....+.+.+++.                  ",
"                @..++...+.++.++++...++++..+..##                 ",
"               @@@.+++.++++....++...+++.....###                 ",
"               @@@$.++++.+++.+......++++.%%%###                 ",
"               @@@$$+++...++++++.++.+++#%%%%###                 ",
"               @@@$$$$@+.++++++......###%%%%###                 ",
"               @@@$$$$@@@$$+++++.+%%%###%%%%###                 ",
"               @@@$$$$@@@$$$$@@##%%%%###%%%%###                 ",
"               @@@$$$$@@@$$$$@@##%%%%###%%%%###                 ",
"               @@@$$$$@@@$$$$@@##%%%%###%%%%###                 ",
"               @@@$$$$@@@$$$$@@##%%%%###%%%%###                 ",
"               @@@$$$$@@@$$$$@@##%%%%###%%%%###                 ",
"               @@@$$$$@@@$$$$@@##%%%%###%%%%###                 ",
"               @@@$$$$@@@$$$$@@##%%%%###%%%%###                 ",
"               @@@$$$$@@@$$$$@@##%%%%###%%%%###                 ",
"               @@@$$$$@@@$$$$@@##%%%%###%%%%###                 ",
"               @@@$$$$@@@$$$$@@##%%%%###%%%%###                 ",
"               @@@@$$$@@@$$$$@@##%%%%###%%%%###                 ",
"                @@@@@$@@@$$$$@@##%%%%###%%#####                 ",
"                  @@@@@@@$$$$@@##%%%%########                   ",
"                    @@@@@$$$$@@##%%%%######                     ",
"                      @@@@@$$@@##%%######                       ",
"                       @@@@@@@@########                         ",
"                         @@@@@@######                           ",
"                           @@@@####                             ",
"                             @@##                               ",
"                                                                ",
"                                                                ",
"                                                                ",
"                                                                ",
"                                                                ",
"                                                                ",
"                                                                ",
"                                                                ",
"                                                                ",
"                                                                ",
"                                                                ",
"                                                                ",
"                                                                ",
"                                                                ",
"                                                                ",
"                                                                ",
"                                                                ",
"                                                                ",
"                                                                ",
"                                                                ",
"                                                                "};
