/* XPM */
static char * wall_xpm[] = {
"64 64 661 2",
"  	c #405721",
". 	c #405824",
"+ 	c #40571F",
"@ 	c #121212",
"# 	c #0F1014",
"$ 	c #36471D",
"% 	c #35461C",
"& 	c #34451B",
"* 	c #405723",
"= 	c #415822",
"- 	c #43581F",
"; 	c #0E0F11",
"> 	c #111310",
", 	c #111015",
"' 	c #37481E",
") 	c #34441D",
"! 	c #3F5524",
"~ 	c #425923",
"{ 	c #0F0F0D",
"] 	c #374A1C",
"^ 	c #36481E",
"/ 	c #100F14",
"( 	c #121210",
"_ 	c #12130E",
": 	c #101413",
"< 	c #415925",
"[ 	c #425921",
"} 	c #445920",
"| 	c #131313",
"1 	c #36461F",
"2 	c #405625",
"3 	c #384B1D",
"4 	c #38491F",
"5 	c #37491F",
"6 	c #121615",
"7 	c #405922",
"8 	c #415A23",
"9 	c #465824",
"0 	c #435A22",
"a 	c #121214",
"b 	c #11110F",
"c 	c #0E100F",
"d 	c #33491B",
"e 	c #425925",
"f 	c #0F0F11",
"g 	c #131315",
"h 	c #111312",
"i 	c #131116",
"j 	c #37471A",
"k 	c #374522",
"l 	c #394A1D",
"m 	c #384821",
"n 	c #38491D",
"o 	c #36471B",
"p 	c #37461D",
"q 	c #445B23",
"r 	c #465B22",
"s 	c #475E26",
"t 	c #141215",
"u 	c #141118",
"v 	c #131218",
"w 	c #110F14",
"x 	c #101115",
"y 	c #0D1114",
"z 	c #364421",
"A 	c #35451E",
"B 	c #364621",
"C 	c #415824",
"D 	c #435A24",
"E 	c #445A29",
"F 	c #090D0E",
"G 	c #111119",
"H 	c #121013",
"I 	c #141414",
"J 	c #161616",
"K 	c #111113",
"L 	c #101113",
"M 	c #39481D",
"N 	c #364617",
"O 	c #415726",
"P 	c #36491B",
"Q 	c #384C17",
"R 	c #384A20",
"S 	c #354B1D",
"T 	c #0F1312",
"U 	c #33451D",
"V 	c #101010",
"W 	c #38471E",
"X 	c #466428",
"Y 	c #486429",
"Z 	c #48642A",
"` 	c #121315",
" .	c #374A1D",
"..	c #111111",
"+.	c #415A20",
"@.	c #476329",
"#.	c #486525",
"$.	c #101116",
"%.	c #0F140E",
"&.	c #4A662B",
"*.	c #4B6329",
"=.	c #101012",
"-.	c #476328",
";.	c #425B21",
">.	c #111217",
",.	c #4B672C",
"'.	c #13140F",
").	c #394723",
"!.	c #384622",
"~.	c #466329",
"{.	c #476527",
"].	c #466426",
"^.	c #3F5725",
"/.	c #3F5723",
"(.	c #42571F",
"_.	c #39451D",
":.	c #374722",
"<.	c #0F1410",
"[.	c #10120D",
"}.	c #37481C",
"|.	c #415D22",
"1.	c #455926",
"2.	c #425827",
"3.	c #4A632C",
"4.	c #4A632A",
"5.	c #47642A",
"6.	c #131017",
"7.	c #11130E",
"8.	c #121411",
"9.	c #12140F",
"0.	c #4C652E",
"a.	c #4C652C",
"b.	c #4B622E",
"c.	c #111216",
"d.	c #35481A",
"e.	c #456428",
"f.	c #476424",
"g.	c #425621",
"h.	c #425625",
"i.	c #37461F",
"j.	c #35481B",
"k.	c #35471F",
"l.	c #121116",
"m.	c #131112",
"n.	c #38471C",
"o.	c #465A27",
"p.	c #425A26",
"q.	c #445921",
"r.	c #486427",
"s.	c #4A6427",
"t.	c #131114",
"u.	c #4C6629",
"v.	c #4A6629",
"w.	c #4A6425",
"x.	c #131311",
"y.	c #121318",
"z.	c #121011",
"A.	c #0F0F0F",
"B.	c #100E11",
"C.	c #415728",
"D.	c #34441F",
"E.	c #34461C",
"F.	c #36451E",
"G.	c #110F12",
"H.	c #45582B",
"I.	c #425B22",
"J.	c #445827",
"K.	c #465A25",
"L.	c #161117",
"M.	c #111713",
"N.	c #101211",
"O.	c #384824",
"P.	c #394B21",
"Q.	c #0E1211",
"R.	c #0E0D09",
"S.	c #10120F",
"T.	c #131416",
"U.	c #445B25",
"V.	c #10100E",
"W.	c #364820",
"X.	c #111214",
"Y.	c #0E0E0C",
"Z.	c #0D1110",
"`.	c #0F1012",
" +	c #0C0E1A",
".+	c #0C1011",
"++	c #455928",
"@+	c #455723",
"#+	c #445823",
"$+	c #36471A",
"%+	c #37461B",
"&+	c #374521",
"*+	c #0D0E10",
"=+	c #334722",
"-+	c #354622",
";+	c #334420",
">+	c #33451F",
",+	c #0F1110",
"'+	c #121317",
")+	c #4D6728",
"!+	c #4B672A",
"~+	c #0F1314",
"{+	c #445825",
"]+	c #455A22",
"^+	c #0E100D",
"/+	c #46612A",
"(+	c #485C27",
"_+	c #141412",
":+	c #3A4827",
"<+	c #33451B",
"[+	c #567A30",
"}+	c #577831",
"|+	c #587A30",
"1+	c #587932",
"2+	c #3C5420",
"3+	c #455524",
"4+	c #3A4B1E",
"5+	c #364622",
"6+	c #101511",
"7+	c #140F13",
"8+	c #100E0F",
"9+	c #425A1E",
"0+	c #0E0F13",
"a+	c #4D672A",
"b+	c #4A6329",
"c+	c #53772F",
"d+	c #425623",
"e+	c #3F5821",
"f+	c #374921",
"g+	c #32421B",
"h+	c #435724",
"i+	c #3F5622",
"j+	c #405627",
"k+	c #3E5521",
"l+	c #476326",
"m+	c #49652B",
"n+	c #496528",
"o+	c #111018",
"p+	c #100F17",
"q+	c #455C26",
"r+	c #0E0E10",
"s+	c #496623",
"t+	c #486628",
"u+	c #405920",
"v+	c #415820",
"w+	c #465922",
"x+	c #455D23",
"y+	c #121413",
"z+	c #33431E",
"A+	c #56762D",
"B+	c #537731",
"C+	c #547832",
"D+	c #547830",
"E+	c #435928",
"F+	c #354419",
"G+	c #3A491E",
"H+	c #364C1E",
"I+	c #384625",
"J+	c #151017",
"K+	c #0D120E",
"L+	c #354721",
"M+	c #425A20",
"N+	c #577833",
"O+	c #557931",
"P+	c #587734",
"Q+	c #415B1E",
"R+	c #334821",
"S+	c #384819",
"T+	c #374B1A",
"U+	c #0F1217",
"V+	c #0F0E14",
"W+	c #121117",
"X+	c #12180E",
"Y+	c #354B1A",
"Z+	c #384823",
"`+	c #394922",
" @	c #496229",
".@	c #37481B",
"+@	c #38481B",
"@@	c #435722",
"#@	c #445729",
"$@	c #435820",
"%@	c #557A2A",
"&@	c #577632",
"*@	c #3D5821",
"=@	c #0C0C0A",
"-@	c #3F5322",
";@	c #3F571B",
">@	c #4B6528",
",@	c #486626",
"'@	c #4B642A",
")@	c #0E130D",
"!@	c #131210",
"~@	c #121119",
"{@	c #334918",
"]@	c #0E0D12",
"^@	c #425527",
"/@	c #34431C",
"(@	c #34461E",
"_@	c #101018",
":@	c #161712",
"<@	c #11120D",
"[@	c #36491C",
"}@	c #364A19",
"|@	c #374923",
"1@	c #436026",
"2@	c #49652A",
"3@	c #48652B",
"4@	c #435A26",
"5@	c #101417",
"6@	c #3A4C24",
"7@	c #334418",
"8@	c #597A33",
"9@	c #577B31",
"0@	c #597B31",
"a@	c #57792F",
"b@	c #0F110E",
"c@	c #141510",
"d@	c #0E0E16",
"e@	c #374723",
"f@	c #120E0D",
"g@	c #35471D",
"h@	c #0E1215",
"i@	c #4B622C",
"j@	c #49612D",
"k@	c #3A4A23",
"l@	c #384720",
"m@	c #304B18",
"n@	c #364423",
"o@	c #55772D",
"p@	c #0C100F",
"q@	c #476529",
"r@	c #3A4A25",
"s@	c #31431D",
"t@	c #53772D",
"u@	c #35441B",
"v@	c #394924",
"w@	c #151515",
"x@	c #131418",
"y@	c #131217",
"z@	c #13140E",
"A@	c #374826",
"B@	c #0A0A12",
"C@	c #0B0B0D",
"D@	c #5C8038",
"E@	c #5A7C25",
"F@	c #547B2C",
"G@	c #516A30",
"H@	c #0F0E13",
"I@	c #0C0F14",
"J@	c #0B0F12",
"K@	c #0E1118",
"L@	c #151419",
"M@	c #101415",
"N@	c #12110D",
"O@	c #567A32",
"P@	c #577734",
"Q@	c #58792A",
"R@	c #4D6531",
"S@	c #10110C",
"T@	c #445720",
"U@	c #364822",
"V@	c #374720",
"W@	c #13120D",
"X@	c #54782E",
"Y@	c #4B672D",
"Z@	c #0D1112",
"`@	c #0E0E0E",
" #	c #11140D",
".#	c #0F100A",
"+#	c #10110B",
"@#	c #52762C",
"##	c #446025",
"$#	c #456126",
"%#	c #466227",
"&#	c #0E0F0A",
"*#	c #0F120B",
"=#	c #0B0C06",
"-#	c #111612",
";#	c #445B27",
">#	c #4B6826",
",#	c #0F0D12",
"'#	c #496228",
")#	c #141011",
"!#	c #496624",
"~#	c #121015",
"{#	c #4A682C",
"]#	c #130F10",
"^#	c #47662A",
"/#	c #33481F",
"(#	c #334618",
"_#	c #141217",
":#	c #4B6526",
"<#	c #455A21",
"[#	c #475A23",
"}#	c #0E150E",
"|#	c #46652A",
"1#	c #496324",
"2#	c #3F581F",
"3#	c #3A4620",
"4#	c #3B481C",
"5#	c #394821",
"6#	c #31460E",
"7#	c #486127",
"8#	c #0F110C",
"9#	c #4E672D",
"0#	c #4D6527",
"a#	c #4C6428",
"b#	c #4B6327",
"c#	c #455924",
"d#	c #435B21",
"e#	c #141416",
"f#	c #161419",
"g#	c #130E12",
"h#	c #436320",
"i#	c #456327",
"j#	c #446226",
"k#	c #435E27",
"l#	c #3F5620",
"m#	c #39491A",
"n#	c #3A4B1F",
"o#	c #18171D",
"p#	c #53792C",
"q#	c #55762F",
"r#	c #120F16",
"s#	c #517A2B",
"t#	c #111016",
"u#	c #537A2B",
"v#	c #55792F",
"w#	c #12130B",
"x#	c #0F0E16",
"y#	c #446723",
"z#	c #100F0D",
"A#	c #12110F",
"B#	c #58782D",
"C#	c #52792A",
"D#	c #517933",
"E#	c #456325",
"F#	c #466228",
"G#	c #0C1013",
"H#	c #100D14",
"I#	c #456524",
"J#	c #466625",
"K#	c #4A6423",
"L#	c #374814",
"M#	c #0D0A11",
"N#	c #33481D",
"O#	c #3A4D20",
"P#	c #0D140C",
"Q#	c #141311",
"R#	c #13120E",
"S#	c #486827",
"T#	c #476525",
"U#	c #394B25",
"V#	c #354918",
"W#	c #120E0F",
"X#	c #100C0D",
"Y#	c #120C0E",
"Z#	c #466225",
"`#	c #577D34",
" $	c #527A31",
".$	c #537B32",
"+$	c #11120C",
"@$	c #151014",
"#$	c #12150A",
"$$	c #547C33",
"%$	c #587733",
"&$	c #4C652B",
"*$	c #567730",
"=$	c #52782F",
"-$	c #100E19",
";$	c #0C0F16",
">$	c #577B33",
",$	c #557933",
"'$	c #4A6228",
")$	c #0F100B",
"!$	c #0F0D18",
"~$	c #557631",
"{$	c #446224",
"]$	c #466424",
"^$	c #36451A",
"/$	c #10130C",
"($	c #0E130F",
"_$	c #48612A",
":$	c #496326",
"<$	c #344620",
"[$	c #344521",
"}$	c #354322",
"|$	c #476422",
"1$	c #436123",
"2$	c #517630",
"3$	c #547431",
"4$	c #0C130C",
"5$	c #55772A",
"6$	c #547629",
"7$	c #547A31",
"8$	c #141318",
"9$	c #374625",
"0$	c #344417",
"a$	c #0E1213",
"b$	c #54762C",
"c$	c #56782C",
"d$	c #56782E",
"e$	c #567732",
"f$	c #415522",
"g$	c #3F571D",
"h$	c #57792D",
"i$	c #4F7B2C",
"j$	c #557A2C",
"k$	c #557A2D",
"l$	c #577C2F",
"m$	c #5B7B30",
"n$	c #5B8030",
"o$	c #0C120E",
"p$	c #12101B",
"q$	c #394A20",
"r$	c #314319",
"s$	c #33441A",
"t$	c #13101B",
"u$	c #567B2D",
"v$	c #597B2E",
"w$	c #567B2E",
"x$	c #587A2E",
"y$	c #0B0A10",
"z$	c #0D0E12",
"A$	c #597930",
"B$	c #455B2A",
"C$	c #3E5527",
"D$	c #0E0F14",
"E$	c #56752F",
"F$	c #577829",
"G$	c #53782A",
"H$	c #57792C",
"I$	c #5A7A31",
"J$	c #486523",
"K$	c #537930",
"L$	c #110E15",
"M$	c #100E13",
"N$	c #0D0F0C",
"O$	c #110F10",
"P$	c #517930",
"Q$	c #557B2E",
"R$	c #0B100C",
"S$	c #537832",
"T$	c #44591E",
"U$	c #547E2C",
"V$	c #547B2A",
"W$	c #557C29",
"X$	c #3F561E",
"Y$	c #45591E",
"Z$	c #41591D",
"`$	c #435C22",
" %	c #0F0C13",
".%	c #130D17",
"+%	c #150F19",
"@%	c #455D21",
"#%	c #43581D",
"$%	c #43591B",
"%%	c #10101A",
"&%	c #4D6B2F",
"*%	c #486128",
"=%	c #41541D",
"-%	c #435B1F",
";%	c #120F1A",
">%	c #100F15",
",%	c #0F1015",
"'%	c #4D6130",
")%	c #3E551D",
"!%	c #486225",
"~%	c #486223",
"{%	c #151110",
"]%	c #0F1219",
"^%	c #56762B",
"/%	c #3E5A20",
"(%	c #40581E",
"_%	c #48662A",
":%	c #456228",
"<%	c #3D591F",
"[%	c #0B1517",
"}%	c #42571E",
"|%	c #3D5727",
"1%	c #171017",
"2%	c #52782D",
"3%	c #3E5720",
"4%	c #446026",
"5%	c #53742D",
"6%	c #527A34",
"7%	c #0A0B06",
"8%	c #4B5E27",
"9%	c #47622D",
"0%	c #080D09",
"a%	c #151517",
"b%	c #040905",
"c%	c #54752E",
"d%	c #527A33",
"e%	c #425A2A",
"f%	c #100D16",
"g%	c #0D120C",
"h%	c #465F25",
"i%	c #567728",
"j%	c #557828",
"k%	c #100D18",
"l%	c #354916",
"m%	c #435C25",
"n%	c #425829",
"o%	c #567726",
"p%	c #0F1316",
"q%	c #49622B",
"r%	c #567339",
"s%	c #54792B",
"t%	c #5D7833",
"u%	c #070D09",
"v%	c #080D13",
"w%	c #0A0F15",
"x%	c #35461A",
"y%	c #0C110D",
"z%	c #455725",
"A%	c #46592B",
"B%	c #475927",
"C%	c #43561F",
"D%	c #0E100B",
"E%	c #0C110B",
"F%	c #121713",
"G%	c #4E652D",
"H%	c #4D642E",
"I%	c #405826",
"J%	c #0D0F0E",
"K%	c #0D0E08",
"L%	c #110D0E",
"M%	c #527630",
"N%	c #0F0D10",
"O%	c #45582A",
"P%	c #140E10",
"Q%	c #527531",
"R%	c #4B6325",
"S%	c #110C12",
"T%	c #180F14",
"U%	c #090E11",
"V%	c #0E110A",
"W%	c #587934",
"X%	c #456124",
"Y%	c #476027",
"Z%	c #465F28",
"`%	c #49692A",
" &	c #587A2D",
".&	c #0D0C12",
"+&	c #14100F",
"@&	c #476421",
"#&	c #0A090E",
"$&	c #0F150B",
"%&	c #140F15",
"&&	c #100B11",
"*&	c #547A2F",
"=&	c #151016",
"-&	c #55772B",
";&	c #130E14",
">&	c #53782B",
",&	c #52762E",
"'&	c #405421",
")&	c #475B28",
"!&	c #120D13",
"    . + @ @ @ @ @ @ @ # $ % & & *   = - ; > @ @ @ @ @ @ @ @ > , ' % % % & ) ) & !     ~ { @ @ @ ] ' ^ ^ / ( _ : ' % & & ) ) ) & ",
"  ~ < [ @ @ @ @ @ @ @ # $ $ $ $ *   ~ } ; > @ | | | | | | | > , ' $ $ $ $ 1 ) & 2   ~ ~ { @ @ @ 3 4 5 5 , ( _ 6 ' $ $ $ 1 1 1 $ ",
"7 8 9 0 @ a _ ( a @ b c d 1 1 1 * * e } f _ a g | | | | | g h i ' ' ' j k 1 ) & *   ~ [ b @ @ @ l m 5 5 b @ _ 6 n o p p 1 1 1 $ ",
"+ q r s g t u v w x y y z A ) B C = D E F G t H I | | J K H y L 1 4 n M N ) A ) O D D 0 b @ @ ( P Q R S ( | _ T p p U U 1 1 1 $ ",
"V @ a a ' ' ' W X Y Y Z * * * * $ $ $ $ $ ' ' 4 ` | g _ 5 5 n  .@ @ @ ..+.~ ~ ~ @.Y Y #.$.a | | | | | | | | ( %.&.Y *.Y 1 1 1 $ ",
"@ @ a =.' ' ' W X Y -.@.* * * * $ $ $ $ $ ' ' 4 ` @ a _ 5 ^ n  .@ @ @ @ ;.~ ~ ~ Z Y Y #.>.a @ @ | | | | | | ( %.,.Y *.Y 1 1 1 $ ",
"@ | '.>.).!.B p ~.{.].X ^././.(.p $ $ _.p :.!.!.<.( h [.$ ' }. .@ @ @ a |.1.1.2.3.4.3.5.6.7.> 7.7.> 8.9.| | '.%.0.a.b.Z p $ $ $ ",
"@ | v c.5 ^ d.B e.Y -.f.  g.g.h.i.$ $ j.k.P ^ ^ > l.m.b $ ' n. .@ @ @ ( o.p.p.q.r.r.s.{.( a t.a a t.t g | | '.T u.v.w.4.j.$ $ $ ",
"@ | x.y.z.z.A.B.9   = C.D.A A E.i.$ $ F.<.G.z.z.H.I.J.K.$ ' n. .@ | | L.M.h h 6.N.N.K A.O. .5 5 5 5 5 P.@ | '.y a h Q.R.1 $ $ $ ",
"@ | | @ @ @ S...1.~   * % $ $ $ $ $ $ d.L T.@ @ U.e ~ ~ $ $ n. .@ | | | | | @ @ @ @ @ V.W.' ' ' ' ' ' 4 , x.| | @ @ @ , ' ' $ $ ",
"@ @ @ @ @ I S...1.~ ~ e % $ $ $ $ $ $ P X.X.@ A.U.e ~ = $ $ n. .@ | | | | | | @ @ @ @ Y.k.$ $ $ $ $ ' ' , ( | | | @ @ / ' ' ' ' ",
"Z.Z.`.Z.Z.;  +.+++@+#+#+$+%+%+&+i.o }.P X.h @ A.0 e * C & $ ' n @ | | | | | | g _ c.x *+=+-+;+>+D.o o n ,+X.c.'+| | 9.@ 4 n n n ",
"~ U.U.D ,.&.)+!+~+=.V A.V =.=.Z.{+e e ]+^+X.@ A.s./+Z @.C e [ (+@ | | | | | | _+:+n $ <+[+}+|+1+2+3+e e 4+4 4 5+| | 6+7+N.L ` X.",
"* e e = Y Y 3.r.K ............8+9+~ ~ q.0+N.@ ..a+b+Z @.~ ~ ]+K.@ | | | | | | T.n.' $ ) c+c+c+c+d+e+~ ~ $ ' f+o | | | | | | | | ",
"* * * = -.Y 3.r.K ..........A.8+9+~ ~ ]+x N.....a+b+Z @.~ ~ ]+K.@ @ @ | | | | ` n.$ $ g+c+c+c+c+h+e+~ ~ $ ' W.o @ | | | | | | | ",
"i+* j+k+l+l+m+n+R.H K o+6.p+p+h h.* e q+,+*+r+r+s+m+n+t+u+v+w+x+/ =.=.( y+| @ | n $ % z+A+B+C+D+E+/.v+u+F+G+H+I+G.G.J+K+| | | | ",
"i+*   C D.B L+$ . M+M++.N+O+c+P+* * * Q+!.R+S+S+y.l.l.l.l.l.>.x }.T+] 4 U+@ @ ..@+e * C -.].].-.p+V+, l.W+W+7.X+Y+Y+Z+`+| | | | ",
"    * = $ $ i.B C * * e+O+c+c+}+* * * C E.j ' ' ` @ @ @ @ @ > , ' ' ' W.t.@ @ ,+g.* * C  @-.Y b+x c @ @ @ @ _ 6 ' ' .@3 a @ @ @ ",
"  ~ e D $ $ i.B e e * e+D+c+c+}+* * * e ^ +@' 4 ` @ | @ @ @ > , ' ' ' W.H ....,+@@* * C  @Y Y b+x h @ @ @ @ _ 6 ' ' .@P K ..@ @ ",
"- - - E+$ $ i.d #@$@$@e+%@O+O+&@*@= D Q+M E.P P V.| g _+W+W+X.# i.$ o %+z.0+0+=@-@* * ;@>@,@n+'@)@!@| | ~@W+c.N.' $ {@`+]@]@]@/ ",
"`.`.=..+$ $ i.R+)@/ # 0+^@    #+/@(@k.%+A._@a a :@| g <@[@[@}@|@$ $ 1 j.1@2@2@3@4@* * O G.# X.T 5@!@| | 6@^ P 3 ' $ k 7@8@9@0@a@",
"b@> c@d@' ' e@.@f@N.N..+C * * e+<+i.i.g@_@h@c.c.@ @ a _ n }.W j o $ $ 1 i@Y -.j@7 * e {+K ..a @ !@g | | k@n +@l@$ $ m@n@O+a@o@o@",
"@ @ a a ' ' !.^ 8+....p@D ~ ~ = $ $ $ d.L L A.@ @ @ a _ ' ' ' $ $ $ $ p q@-.-.@.= ~ ~ ~ b @ @ @ | | | | r@m ' $ $ $ >+s@c+c+c+t@",
"@ | g a 4 4 !.^ z.@ @ p@D ~ ~ = ' ' ' d.L L ....A.A.f <@$ ' ' $ $ $ $ u@X -.-.@.~ ~ ~ ~ { @ @ @ | | | | v@m ' ' $ $ >+s@c+c+c+t@",
"@ | | w@x@y@8.z@A@n.+@S+B@c c / l.c.0+C@D@E@F@F@&.m+u.G@0+H@0+I@2.* * * 4@~ ~ C.J@c f K@W }@ .5 | | | | L@y@> M@e e O C = = C 7 ",
"@ | | | '._ > a ] W.W.' N@( ( @ @ _ <@/ O@P@Q@Q@@.@.4.R@S@<@N.Z.e e e * *     T@A.b b V.}.U@V@V@I y@| | '._ W@> 4@e + * 2 * * g.",
"@ | | | g a > a 5 ' ' +@H@a a a ( @ @ , X@a@c+c+-.-.-.Y@K K L Z@e ~ ~ ~ ~ ~ ~ #+L K K `@g@' ' ' , a a g | | ( <.D D ~ ~ ~ ~     ",
"@ | | J _ (  #( 3 ' $ j S@.#+#+#( @ @ / @#|+O+O+##$#%#m+&#V.*#T E+E+4@E+E+4@4@h+b@+#<@=#E.& $ o =.( ( _ I | x.-#E ;#4@E+E+4@E+E+",
"@ | g =.5 5 $ $ ' $ $ o -.2@2@>#@ @ @ ,#q@'#-.%#* * * *   = $@K.V ....@ ....A.)#e.-.Y 2@8 e e e % $+5 5 , x.| | | @ | I ....V ..",
"@ | g a 5 ^ ' ' $ $ $ o Y Y Y !#@ @ @ ~#{#b+-.-.* * * * ~ ~ ]+K.@ @ @ @ @ @ @ ]#^#Y -.-.e+* e e $ .@^ 5 , x.| | | | @ @ @ @ @ @ ",
"@ | '.W+n ' ^ [@o /#/#(#'#-.Y v./ @ @ _#:#Y 4. @. ^.^.^.q.#+<#[#_ h ( W+}#@ @ ]#|#1#1#-.2#* 2 * S+3#' n b | | | | | x._ X.X.c.c.",
"@ | v ]@ .n 4#5#6#A & <+7#-.Y r./ @ @ 8#9#0#a#b#C e 1.c##+@+[#d#K _#y@e#f#@ @ g#h#i#j#k#/.l#    f+m#n# .( | | | | | '.o#> T h y+",
"@ | | g @ @ _ ; 4.Z -.'#-.-.Y r., @ @ l.> @ @ A.o i.%+l@{ ..<@K W ' ' f+@ @ ..~#p#c+c+q#7#%#'# @`.N.@ @ | | | | | | h g c#D 4@e ",
"@ @ @ @ @ @ _ ; s.Y Y -.-.Y Y v.l.@ @ @ @ @ @ @ +@l@n.l@A...S., ' ' ' W.t.@ V r#s#O+c+c+7#%#-.'## c @ @ | | | | @ @ h / ~ ~ ~ ~ ",
"@ @ a @ @ @ 7.A.r.Y Y -.-.Y Y v.a @ @ @ @ @ @ @ n.l@W !.A...[.K ' ' ' ' t.@ V t#u#v#t@c+7#%#-.'#/ ^+a a | | | | a a > / ~ ~ ~ ~ ",
"^+> l.@ !@m.w#x#y#Y r.r.Y r.r.n+_ !@!@y+'+x.| @  .W.W.W.^+N.N.S@i.' ' W x z#A#H B#F@C#D#E#F#-. @=.G#r#6.( @ _ a 6.H#, ; {+e *   ",
"I#J#K#v.g@g@-+L#y@~#K =.w f f M#N#g@g@O#P#Q#| | R#H ~#z#S#T##.S#$ $ $ $+U#5 5 V#W+W#X#Y# @Z#%#Z#`#C+ $.$+$@ @$#$$$ $%$`#+ * *   ",
"-.-.q@&$$ ' !.^ z.@ @ @ @ @ @ =.S+' ' 3 X.X.| | | @ ( r+2@Y *.2@1 1 1 $ $ ' ' %+L ..A.A.-.%#%#%#*$=$O+O+N.S@-$;$>$O+N+,$* * *   ",
"$#-.X b+$ ' !.^ z.@ @ @ @ @ @ =.S+' ' ] L X.@ @ @ @ ( f -.-.'$Y ) ) ) $ $ ' ' %+` @ A.A.-.%#%#%#}+=$c+D+c )$!$;$O+O+~$,$* * *   ",
"{$E#%#]$^$n.j.p /$| | ` 8.X.X.y+' $ $ :.V ($h y+U+( ( f {.E#_$:$<$[$<$' B ^$n.}$9.@ ..H@|$]$1$1$2$3$~$*$8#`.=.4$N+q#5$6$g.g.g.@@",
"~$~$7$}+`.`.y@y@8$| | 9.9$M %+D.$ $ $ 0$%#4.b+&$a$@ ( =.}+}+N+~$b$c$d$e$7+`.X.9.h @ ..J@}+d$~$~$l#u+e+e+d+f$g$C.7 7 O ^.`.,+N.,+",
"c+c+h$i$..@ @ @ | | | c.^ ' ' $ $ 1 1 ) @.b+Y Y L ( ( Z@[+v#c+c+c+c+t@F@W#A...@ @ ....]@j$t@c+c+h+e+* * * * * * * * d+$@K ..@ @ ",
"c+O+h$i$..@ @ @ | @ @ c.^ ' ' $ $ 1 ) ) @.'#Y Y *+( ( Z@[+v#O+c+c+c+t@F@W#A.A.......A.]@j$t@c+c+d+e+* * * * * * * * {+q.f @ @ @ ",
"k$l$m$n$@ @ > t.o$!@b p$q$V@1 &+{@<+r$s$i#b+Z m+;$t$l.+#u$v$k$w$x$x$[+|+y$z$z$]@z$z$]@)$A$a@x$1+@+*@* e B$  /.C$* * #+} a @ @ | ",
"D$D$W+> @ @ h _ B$D D 1.V.A#A#,+K# @ @'$d$E$}+}+;$t$( _ >.D$$.$.D$D$; .+F$j$j$5$G$j$H$I$G#0+D$0+d+* * C b f .#&#e e #+} a @ @ | ",
"a a a l.@ @ > @ 4@D ~ ]+`.....=.J$q@X  @K$q#O+O+L$~@@ @ a a a a f K , M$K$t@t@t@t@t@t@v#M$H@f f 9+{+~ = S.b A.N$e e #+} K ..@ @ ",
"@ | @ @ @ ..S...{+~ ~ #+=.....O$J$Y Y 4.7$}+v#[+J+~@@ @ @ @ @ @ @ @ f r#P$c+c+c+c+c+c+Q$H#f A.A.9+#+~ ~ Z@..{ R$e * #+} f A...@ ",
"@ | h a @ K N.S.J.~ ~ J.,+....V s.b+b+Y 7$O+v#[+i W+@ @ @ @ @ ( @ @ f r#S$c+c+c+c+c+B+O@H@f A.^+T$2.~ ~ Z...{ N$e * ~ #+c c ..A.",
"@ | h N$U$V$W$1+X$* * [ Y$Z$Z$`$h c.c. %6. %.%+%| _ a <@@%#%$%x+> @ f %%&%q@q@*%f$d+d+=%d+-%#%#%;%G.>%,%'%#%v+[ * * * )%!%~%1#1#",
"@ | {%]%Q$k$c+^%/%* * (%^.#+#+T$K h h x.x.( t.t.( l.a <@c#c#9 -%N...K %%_%1#1#:%e+e+e+<%* {+c#4@t [%h h #+#+} g.* * }%|%l+:$:$:$",
"@ | c.1%O+O+q#2%d+* * * * ~ ~ 0 / @ @ @ @ @ @ @ @ @ a )$= ~ q.c#....K $.3@Y -.@.  * *   ~ ~ D D c.> @ @ 0 4@~ ~ * * h.3%F#F#F#%#",
"@ | c.1%O+c+q#2%d+* * * C = = [ / @ @ @ @ @ | @ @ @ f )$= ~ q.c#`@A.f D$3@Y 2@@.  * * ~ ~ U.U.U.c.> @ @ q 4@U.~ * * h.3%F#F#4%##",
"@ | @ y -.%#7#F#5%~$~$6%7%X.X.&#G+B v@O#X.h @ @ 8%J.+ + e *   l#4.b+4.9%0%Z.Q.7.]+  ~ ;#( y+T.T.w@@ | @ e#a%x.b%F#@.X '#q#q#*$e$",
"@ | @ h@Y -.7#F#c%o@o@d%{ z#z#..+@' ' ] L h @ @ U.e%e ~ * *   = @.@.@.r.f%<@<@L $@~ ~ ~ K 8+m.m.@ @ | | @ @ _ g%Z @.X h%q#q#q#o@",
"@ | @ h@Z @.%#:%q#i%j%%$[.k%k%.#p $ $ l%b ..@ @ m%E+e e * * ^.7 @.~.~.Y ,#..V N.c#4@4@n%..<@b b ( ( ( ( @ @ ( 6+4.4. @/+5$j%i%o%",
"@ @ @ p%m+@.q%f.r%s%s%t%u%v%w%*#5+o x%g@'+y%^+^+$@;#z%{+e C ^.8 l+].].Y M$..@ y+A%{+B%C%.#p@D%E%E%8#[.)@V @ ( F%G%a.H%q%x$u$s%%@",
"@ @ !@0+~ ~ J.< c A.A.W#S$D+O+C+].-.-.r.I%#+~ D J%{ f K%2@-.1#X c+c+t@F@L%@ @ @ @ @ @ ..Y Y Y Y Y 2@&.&.h ( @ @ @ ..V A.A.A.`@`@",
"V @ !@# ~ ~ J.< c A.A.W#S$c+c+M%E#%#-.r.I%g.~ ~ J%b K .#Y -.1#_%c+c+t@F@L%@ @ @ @ @ | ..Y -.-.-.-.-.Y 2@N.( @ @ @ @ @ @ ........",
"8+z.Q.N%c#c#O%<#P%A...J%x$=$=$Q%:%E#E# @3%e+h.J.J%( a )$n+r.R%s.N+N+a@7$S%h h > T @ | t##.:$'# @@.f.].{.c N.h h @ @ T%<.z.z.)#W#",
"M$w K U%d#<#c#0 V%@ ..c W%}+q#q#X%Y%*%Z%8 e+7 7 J%( a )$n+>@J$`%a@a@v# &.&x c.a +&@ @ V+@&]$i#i###F#4.4.#&b > L @ @ $&c.B.M$%&&&",
"2%2%k$s#..a a h l.@ @ L Y -.%#@.* * * i+'#F#-.Y ; ( @ @ @ a @ a A.f f , +.0 0 K.> @ @ ]@h$t@c+q#= e+* * 2 ~ 4@{+@ @ t.t.7$*&7$2%",
"c+c+h$i$..@ @ @ @ @ @ Q.Y -.%#@.* * * ! :$:%-.Y ; ( @ @ @ @ @ @ @ @ @ ..+.D D K.h @ @ ]@j$t@c+c+h+e+* * * e 4@{+@ @ m.=&7$O+O+t@",
"c+c+-&i$..@ @ @ | | @ Z.&.-.%#@.* * * ! :$:%-.Y ; ( | | | | | @ @ @ @ @ ;.D D c#h @ ..]@G$t@c+c+d+e+* * * e e 1.@ @ m.;&7$O+c+t@",
"c%q#-&i$..@ | | | | @ Z.&.-.%#-.      ! :$:%-.Y ; ( | | | | | | | @ @ @ `$D D #+h ....]@G$>&@#,&'&e+        e )&..@ z.!&*&v#t@q#"};
